<svg width="175" height="202" viewBox="0 0 175 202" fill="none" xmlns="http://www.w3.org/2000/svg">
<rect y="8.51804" width="115.602" height="127.771" rx="6" fill="#875AE2"/>
<path d="M150.161 32.2031V183.324C150.164 184.366 149.961 185.398 149.564 186.361C149.167 187.324 148.583 188.2 147.846 188.938C147.11 189.675 146.234 190.26 145.27 190.66C144.307 191.059 143.273 191.264 142.23 191.264H24.9607C23.9171 191.264 22.8837 191.059 21.9197 190.66C20.9558 190.26 20.0802 189.675 19.3431 188.938C18.606 188.2 18.0219 187.325 17.6242 186.362C17.2265 185.398 17.0231 184.366 17.0256 183.324V32.2031C17.0256 30.1023 17.8616 28.0875 19.3497 26.602C20.8379 25.1165 22.8562 24.282 24.9607 24.282H51.5405C49.7532 26.3398 48.7694 28.9722 48.77 31.6958V34.8748H32.4028C31.7771 34.8743 31.1575 34.9969 30.5793 35.2355C30.0012 35.4742 29.4758 35.8242 29.0332 36.2657C28.5906 36.7071 28.2395 37.2313 28 37.8083C27.7605 38.3852 27.6372 39.0036 27.6372 39.6282V175.242C27.6377 175.866 27.7613 176.484 28.0011 177.061C28.2408 177.637 28.592 178.161 29.0345 178.602C29.4771 179.043 30.0023 179.393 30.5802 179.631C31.1581 179.869 31.7774 179.992 32.4028 179.991H136.102C136.727 179.992 137.347 179.869 137.925 179.631C138.503 179.392 139.029 179.042 139.471 178.601C139.914 178.159 140.265 177.635 140.505 177.058C140.744 176.481 140.867 175.863 140.867 175.238V39.6282C140.867 39.0036 140.744 38.3852 140.505 37.8083C140.265 37.2313 139.914 36.7071 139.471 36.2657C139.029 35.8242 138.503 35.4742 137.925 35.2355C137.347 34.9969 136.727 34.8743 136.102 34.8748H118.41V31.6958C118.414 28.9741 117.436 26.342 115.654 24.282H142.234C143.275 24.2824 144.307 24.4877 145.269 24.8861C146.231 25.2844 147.105 25.868 147.841 26.6036C148.577 27.3391 149.161 28.2122 149.559 29.1729C149.957 30.1337 150.162 31.1634 150.161 32.2031Z" fill="#47BCEE"/>
<path d="M140.856 39.6282V175.242C140.855 176.501 140.354 177.707 139.463 178.598C138.571 179.488 137.363 179.989 136.102 179.991H32.4028C31.7771 179.992 31.1575 179.869 30.5793 179.631C30.0011 179.392 29.4758 179.042 29.0332 178.601C28.5906 178.159 28.2395 177.635 28 177.058C27.7604 176.481 27.6371 175.863 27.6371 175.238V39.6282C27.6371 39.0036 27.7604 38.3852 28 37.8083C28.2395 37.2313 28.5906 36.7071 29.0332 36.2657C29.4758 35.8242 30.0011 35.4742 30.5793 35.2355C31.1575 34.9969 31.7771 34.8743 32.4028 34.8748H48.7699V40.8306H118.41V34.8748H136.102C137.363 34.8767 138.573 35.3784 139.464 36.2697C140.355 37.1609 140.856 38.3688 140.856 39.6282ZM127.914 58.5968C127.914 58.0626 127.809 57.5336 127.604 57.04C127.399 56.5465 127.099 56.0981 126.72 55.7205C126.341 55.3429 125.892 55.0435 125.397 54.8394C124.903 54.6353 124.373 54.5305 123.838 54.531H74.066C73.5205 54.5145 72.9772 54.6074 72.4683 54.8044C71.9594 55.0014 71.4954 55.2983 71.1036 55.6777C70.7119 56.0571 70.4004 56.5111 70.1877 57.0128C69.975 57.5146 69.8654 58.0539 69.8654 58.5987C69.8654 59.1435 69.975 59.6828 70.1877 60.1845C70.4004 60.6863 70.7119 61.1403 71.1036 61.5197C71.4954 61.899 71.9594 62.196 72.4683 62.393C72.9772 62.5899 73.5205 62.6829 74.066 62.6663H123.838C124.373 62.6668 124.903 62.5619 125.398 62.3576C125.893 62.1532 126.343 61.8535 126.721 61.4755C127.1 61.0975 127.4 60.6487 127.605 60.1547C127.81 59.6608 127.915 59.1314 127.914 58.5968ZM127.914 83.9083C127.914 82.829 127.485 81.7939 126.72 81.0307C125.956 80.2676 124.919 79.8388 123.838 79.8388H74.066C72.9848 79.8388 71.9479 80.2676 71.1834 81.0307C70.4188 81.7939 69.9893 82.829 69.9893 83.9083C69.9893 84.9876 70.4188 86.0227 71.1834 86.7859C71.9479 87.5491 72.9848 87.9779 74.066 87.9779H123.838C124.373 87.9784 124.903 87.8734 125.398 87.6691C125.893 87.4648 126.343 87.165 126.721 86.787C127.1 86.409 127.4 85.9602 127.605 85.4663C127.81 84.9723 127.915 84.4429 127.914 83.9083ZM127.914 109.216C127.914 108.137 127.485 107.102 126.72 106.339C125.956 105.575 124.919 105.147 123.838 105.147H74.066C72.9848 105.147 71.9479 105.575 71.1834 106.339C70.4188 107.102 69.9893 108.137 69.9893 109.216C69.9893 110.295 70.4188 111.331 71.1834 112.094C71.9479 112.857 72.9848 113.286 74.066 113.286H123.838C124.373 113.286 124.903 113.181 125.398 112.977C125.893 112.773 126.343 112.473 126.721 112.095C127.1 111.717 127.4 111.268 127.605 110.774C127.81 110.28 127.915 109.751 127.914 109.216ZM127.914 134.524C127.914 133.445 127.485 132.409 126.72 131.646C125.956 130.883 124.919 130.454 123.838 130.454H74.066C72.9848 130.454 71.9479 130.883 71.1834 131.646C70.4188 132.409 69.9893 133.445 69.9893 134.524C69.9893 135.603 70.4188 136.638 71.1834 137.401C71.9479 138.165 72.9848 138.593 74.066 138.593H123.838C124.373 138.594 124.903 138.489 125.398 138.285C125.893 138.08 126.343 137.781 126.721 137.403C127.1 137.025 127.4 136.576 127.605 136.082C127.81 135.588 127.915 135.058 127.914 134.524ZM127.914 159.832C127.914 158.752 127.485 157.717 126.72 156.954C125.956 156.191 124.919 155.762 123.838 155.762H74.066C72.9848 155.762 71.9479 156.191 71.1834 156.954C70.4188 157.717 69.9893 158.752 69.9893 159.832C69.9893 160.911 70.4188 161.946 71.1834 162.709C71.9479 163.472 72.9848 163.901 74.066 163.901H123.838C124.373 163.902 124.903 163.797 125.398 163.592C125.893 163.388 126.343 163.088 126.721 162.71C127.1 162.332 127.4 161.884 127.605 161.39C127.81 160.896 127.915 160.366 127.914 159.832ZM58.0527 168.211V151.456H41.2714V168.211H58.0527ZM58.0527 142.9V126.148H41.2714V142.9H58.0527ZM58.0527 117.592V100.84H41.2714V117.592H58.0527ZM58.0527 92.2841V75.5288H41.2714V92.2841H58.0527ZM58.0527 66.9764V50.221H41.2714V66.9764H58.0527Z" fill="#FFEAA6"/>
<path d="M123.838 54.531C124.383 54.5145 124.926 54.6074 125.435 54.8044C125.944 55.0014 126.408 55.2983 126.8 55.6777C127.192 56.0571 127.503 56.5111 127.716 57.0128C127.929 57.5146 128.038 58.0539 128.038 58.5987C128.038 59.1435 127.929 59.6828 127.716 60.1845C127.503 60.6863 127.192 61.1403 126.8 61.5197C126.408 61.899 125.944 62.196 125.435 62.393C124.926 62.5899 124.383 62.6829 123.838 62.6663H74.066C73.5205 62.6829 72.9772 62.5899 72.4683 62.393C71.9594 62.196 71.4953 61.899 71.1036 61.5197C70.7118 61.1403 70.4004 60.6863 70.1877 60.1845C69.975 59.6828 69.8654 59.1435 69.8654 58.5987C69.8654 58.0539 69.975 57.5146 70.1877 57.0128C70.4004 56.5111 70.7118 56.0571 71.1036 55.6777C71.4953 55.2983 71.9594 55.0014 72.4683 54.8044C72.9772 54.6074 73.5205 54.5145 74.066 54.531H123.838Z" fill="#FFD23F"/>
<path d="M123.838 79.8388C124.919 79.8388 125.956 80.2676 126.72 81.0307C127.485 81.7939 127.914 82.829 127.914 83.9083C127.914 84.9876 127.485 86.0227 126.72 86.7859C125.956 87.5491 124.919 87.9779 123.838 87.9779H74.0661C72.9848 87.9779 71.9479 87.5491 71.1834 86.7859C70.4188 86.0227 69.9893 84.9876 69.9893 83.9083C69.9893 82.829 70.4188 81.7939 71.1834 81.0307C71.9479 80.2676 72.9848 79.8388 74.0661 79.8388H123.838Z" fill="#FFD23F"/>
<path d="M123.838 105.147C124.919 105.147 125.956 105.575 126.72 106.339C127.485 107.102 127.914 108.137 127.914 109.216C127.914 110.295 127.485 111.331 126.72 112.094C125.956 112.857 124.919 113.286 123.838 113.286H74.0661C72.9848 113.286 71.9479 112.857 71.1834 112.094C70.4188 111.331 69.9893 110.295 69.9893 109.216C69.9893 108.137 70.4188 107.102 71.1834 106.339C71.9479 105.575 72.9848 105.147 74.0661 105.147H123.838Z" fill="#FFD23F"/>
<path d="M123.838 130.454C124.919 130.454 125.956 130.883 126.72 131.646C127.485 132.409 127.914 133.445 127.914 134.524C127.914 135.603 127.485 136.638 126.72 137.401C125.956 138.165 124.919 138.593 123.838 138.593H74.0661C72.9848 138.593 71.9479 138.165 71.1834 137.401C70.4188 136.638 69.9893 135.603 69.9893 134.524C69.9893 133.445 70.4188 132.409 71.1834 131.646C71.9479 130.883 72.9848 130.454 74.0661 130.454H123.838Z" fill="#FFD23F"/>
<path d="M123.838 155.762C124.919 155.762 125.956 156.191 126.72 156.954C127.485 157.717 127.914 158.752 127.914 159.832C127.914 160.911 127.485 161.946 126.72 162.709C125.956 163.472 124.919 163.901 123.838 163.901H74.0661C72.9848 163.901 71.9479 163.472 71.1834 162.709C70.4188 161.946 69.9893 160.911 69.9893 159.832C69.9893 158.752 70.4188 157.717 71.1834 156.954C71.9479 156.191 72.9848 155.762 74.0661 155.762H123.838Z" fill="#FFD23F"/>
<path d="M118.406 34.8748H48.785V40.8306H118.406V34.8748Z" fill="#80D9FF"/>
<path d="M118.41 31.6958V34.8748H48.7699V31.6958C48.7652 28.9741 49.7435 26.342 51.5254 24.282H115.65C117.434 26.3414 118.413 28.9736 118.41 31.6958Z" fill="#80D9FF"/>
<path d="M115.65 24.2819H51.5405C52.6095 23.0339 53.9374 22.0327 55.4323 21.3475C56.9272 20.6624 58.5534 20.3097 60.1984 20.3139H72.9443C71.9785 18.4813 71.5031 16.4308 71.5643 14.361C71.6254 12.2912 72.2209 10.2723 73.2932 8.49969C74.3655 6.72711 75.8781 5.26098 77.6847 4.2433C79.4912 3.22562 81.5304 2.69089 83.6048 2.69089C85.6791 2.69089 87.7183 3.22562 89.5249 4.2433C91.3314 5.26098 92.8441 6.72711 93.9164 8.49969C94.9887 10.2723 95.5842 12.2912 95.6453 14.361C95.7064 16.4308 95.2311 18.4813 94.2653 20.3139H107.004C108.647 20.3113 110.271 20.6648 111.764 21.3499C113.256 22.035 114.583 23.0353 115.65 24.2819ZM89.3905 14.6811C89.3913 13.5365 89.0519 12.4173 88.4154 11.4652C87.7788 10.513 86.8737 9.77074 85.8145 9.33217C84.7553 8.89361 83.5896 8.77848 82.4649 9.00134C81.3401 9.2242 80.3068 9.77504 79.4957 10.5842C78.6846 11.3933 78.1321 12.4244 77.9081 13.5471C77.6842 14.6697 77.7987 15.8334 78.2374 16.891C78.676 17.9486 79.4191 18.8526 80.3725 19.4887C81.3258 20.1247 82.4468 20.4642 83.5935 20.4642C84.3546 20.4647 85.1083 20.3154 85.8116 20.025C86.5149 19.7346 87.154 19.3087 87.6924 18.7717C88.2307 18.2346 88.6578 17.5969 88.9492 16.8951C89.2405 16.1932 89.3905 15.4409 89.3905 14.6811Z" fill="#80D9FF"/>
<path d="M58.0527 151.456H41.2714V168.211H58.0527V151.456Z" fill="#FFD23F"/>
<path d="M58.0527 126.148H41.2714V142.9H58.0527V126.148Z" fill="#FFD23F"/>
<path d="M58.0527 100.84H41.2714V117.592H58.0527V100.84Z" fill="#FFD23F"/>
<path d="M58.0527 75.5287H41.2714V92.2841H58.0527V75.5287Z" fill="#FFD23F"/>
<path d="M58.0527 50.221H41.2714V66.9764H58.0527V50.221Z" fill="#FFD23F"/>
<path d="M115.65 24.282H142.23C143.272 24.282 144.304 24.4869 145.266 24.885C146.229 25.2831 147.103 25.8666 147.84 26.6022C148.576 27.3378 149.16 28.2111 149.559 29.1721C149.957 30.1331 150.162 31.163 150.161 32.2031V183.324C150.164 184.366 149.961 185.398 149.564 186.361C149.167 187.324 148.583 188.2 147.846 188.938C147.11 189.675 146.234 190.26 145.27 190.66C144.307 191.059 143.274 191.264 142.23 191.264H24.9607C23.9171 191.264 22.8837 191.059 21.9197 190.66C20.9558 190.26 20.0802 189.675 19.3431 188.938C18.606 188.2 18.0219 187.325 17.6242 186.362C17.2265 185.398 17.0231 184.366 17.0256 183.324V32.2031C17.0256 30.1023 17.8616 28.0875 19.3497 26.602C20.8379 25.1165 22.8562 24.282 24.9607 24.282H51.5405" stroke="#461E96" stroke-width="2" stroke-linecap="round" stroke-linejoin="round"/>
<path d="M118.41 34.8748H136.102C136.727 34.8743 137.347 34.9969 137.925 35.2355C138.503 35.4742 139.029 35.8242 139.471 36.2657C139.914 36.7071 140.265 37.2313 140.505 37.8083C140.744 38.3852 140.867 39.0036 140.867 39.6282V175.242C140.867 175.866 140.743 176.484 140.503 177.061C140.264 177.637 139.913 178.161 139.47 178.602C139.027 179.043 138.502 179.393 137.924 179.631C137.346 179.869 136.727 179.992 136.102 179.991H32.4028C31.7771 179.992 31.1575 179.869 30.5793 179.631C30.0012 179.392 29.4758 179.042 29.0332 178.601C28.5906 178.159 28.2395 177.635 28 177.058C27.7604 176.481 27.6371 175.863 27.6371 175.238V39.6282C27.6371 39.0036 27.7604 38.3852 28 37.8083C28.2395 37.2313 28.5906 36.7071 29.0332 36.2657C29.4758 35.8242 30.0012 35.4742 30.5793 35.2355C31.1575 34.9969 31.7771 34.8743 32.4028 34.8748H48.7699" stroke="#461E96" stroke-width="2" stroke-linecap="round" stroke-linejoin="round"/>
<path d="M58.0527 50.221H41.2714V66.9764H58.0527V50.221Z" stroke="#461E96" stroke-width="2" stroke-linecap="round" stroke-linejoin="round"/>
<path d="M123.838 62.6663H74.066C73.5205 62.6829 72.9772 62.5899 72.4683 62.393C71.9594 62.196 71.4953 61.899 71.1036 61.5197C70.7118 61.1403 70.4004 60.6863 70.1877 60.1845C69.975 59.6828 69.8654 59.1435 69.8654 58.5987C69.8654 58.0539 69.975 57.5146 70.1877 57.0128C70.4004 56.5111 70.7118 56.0571 71.1036 55.6777C71.4953 55.2983 71.9594 55.0014 72.4683 54.8044C72.9772 54.6074 73.5205 54.5145 74.066 54.531H123.838C124.383 54.5145 124.926 54.6074 125.435 54.8044C125.944 55.0014 126.408 55.2983 126.8 55.6777C127.192 56.0571 127.503 56.5111 127.716 57.0128C127.929 57.5146 128.038 58.0539 128.038 58.5987C128.038 59.1435 127.929 59.6828 127.716 60.1845C127.503 60.6863 127.192 61.1403 126.8 61.5197C126.408 61.899 125.944 62.196 125.435 62.393C124.926 62.5899 124.383 62.6829 123.838 62.6663V62.6663Z" stroke="#461E96" stroke-width="2" stroke-linecap="round" stroke-linejoin="round"/>
<path d="M123.838 87.9779H74.0661C72.9848 87.9779 71.9479 87.5491 71.1834 86.7859C70.4188 86.0227 69.9893 84.9876 69.9893 83.9083C69.9893 82.829 70.4188 81.7939 71.1834 81.0307C71.9479 80.2676 72.9848 79.8388 74.0661 79.8388H123.838C124.919 79.8388 125.956 80.2676 126.72 81.0307C127.485 81.7939 127.914 82.829 127.914 83.9083C127.914 84.9876 127.485 86.0227 126.72 86.7859C125.956 87.5491 124.919 87.9779 123.838 87.9779Z" stroke="#461E96" stroke-width="2" stroke-linecap="round" stroke-linejoin="round"/>
<path d="M58.0527 75.5287H41.2714V92.2841H58.0527V75.5287Z" stroke="#461E96" stroke-width="2" stroke-linecap="round" stroke-linejoin="round"/>
<path d="M58.0527 100.84H41.2714V117.592H58.0527V100.84Z" stroke="#461E96" stroke-width="2" stroke-linecap="round" stroke-linejoin="round"/>
<path d="M123.838 113.286H74.0661C72.9848 113.286 71.9479 112.857 71.1834 112.094C70.4188 111.331 69.9893 110.295 69.9893 109.216C69.9893 108.137 70.4188 107.102 71.1834 106.339C71.9479 105.575 72.9848 105.147 74.0661 105.147H123.838C124.919 105.147 125.956 105.575 126.72 106.339C127.485 107.102 127.914 108.137 127.914 109.216C127.914 110.295 127.485 111.331 126.72 112.094C125.956 112.857 124.919 113.286 123.838 113.286V113.286Z" stroke="#461E96" stroke-width="2" stroke-linecap="round" stroke-linejoin="round"/>
<path d="M58.0527 126.148H41.2714V142.9H58.0527V126.148Z" stroke="#461E96" stroke-width="2" stroke-linecap="round" stroke-linejoin="round"/>
<path d="M123.838 138.593H74.0661C72.9848 138.593 71.9479 138.165 71.1834 137.401C70.4188 136.638 69.9893 135.603 69.9893 134.524C69.9893 133.445 70.4188 132.409 71.1834 131.646C71.9479 130.883 72.9848 130.454 74.0661 130.454H123.838C124.919 130.454 125.956 130.883 126.72 131.646C127.485 132.409 127.914 133.445 127.914 134.524C127.914 135.603 127.485 136.638 126.72 137.401C125.956 138.165 124.919 138.593 123.838 138.593V138.593Z" stroke="#461E96" stroke-width="2" stroke-linecap="round" stroke-linejoin="round"/>
<path d="M58.0527 151.456H41.2714V168.211H58.0527V151.456Z" stroke="#461E96" stroke-width="2" stroke-linecap="round" stroke-linejoin="round"/>
<path d="M123.838 163.901H74.0661C72.9848 163.901 71.9479 163.472 71.1834 162.709C70.4188 161.946 69.9893 160.911 69.9893 159.832C69.9893 158.752 70.4188 157.717 71.1834 156.954C71.9479 156.191 72.9848 155.762 74.0661 155.762H123.838C124.919 155.762 125.956 156.191 126.72 156.954C127.485 157.717 127.914 158.752 127.914 159.832C127.914 160.911 127.485 161.946 126.72 162.709C125.956 163.472 124.919 163.901 123.838 163.901V163.901Z" stroke="#461E96" stroke-width="2" stroke-linecap="round" stroke-linejoin="round"/>
<path d="M115.65 24.2819C117.434 26.3414 118.413 28.9736 118.41 31.6958V40.8306H48.77V31.6958C48.772 28.6777 49.9739 25.7838 52.1117 23.6497C54.2496 21.5157 57.1486 20.3159 60.172 20.3139H72.918C71.9522 18.4813 71.4768 16.4308 71.5379 14.361C71.5991 12.2912 72.1946 10.2723 73.2669 8.49969C74.3391 6.72711 75.8518 5.26098 77.6584 4.2433C79.4649 3.22562 81.5041 2.69089 83.5785 2.69089C85.6528 2.69089 87.692 3.22562 89.4986 4.2433C91.3051 5.26098 92.8178 6.72711 93.8901 8.49969C94.9623 10.2723 95.5579 12.2912 95.619 14.361C95.6801 16.4308 95.2048 18.4813 94.239 20.3139H107.004C108.647 20.3113 110.271 20.6648 111.764 21.3499C113.256 22.035 114.583 23.0354 115.65 24.2819V24.2819Z" stroke="#461E96" stroke-width="2" stroke-linecap="round" stroke-linejoin="round"/>
<path d="M89.3905 14.6811C89.3905 15.8256 89.0505 16.9445 88.4135 17.8961C87.7765 18.8477 86.8712 19.5894 85.8119 20.0274C84.7526 20.4654 83.587 20.58 82.4625 20.3567C81.338 20.1334 80.3051 19.5823 79.4944 18.773C78.6836 17.9637 78.1315 16.9326 77.9078 15.8101C77.6842 14.6876 77.799 13.524 78.2377 12.4666C78.6765 11.4092 79.4195 10.5055 80.3728 9.8696C81.3261 9.23374 82.4469 8.89435 83.5935 8.89435C84.3549 8.89386 85.1089 9.0432 85.8125 9.33384C86.516 9.62447 87.1553 10.0507 87.6937 10.5882C88.2321 11.1256 88.6591 11.7637 88.9502 12.466C89.2414 13.1683 89.391 13.9211 89.3905 14.6811V14.6811Z" stroke="#461E96" stroke-width="2" stroke-linecap="round" stroke-linejoin="round"/>
<path d="M45.4423 54.1027L49.5943 58.2473L53.7463 62.392" stroke="#461E96" stroke-width="2" stroke-linecap="round" stroke-linejoin="round"/>
<path d="M53.7463 54.1027L49.5943 58.2473L45.4423 62.392" stroke="#461E96" stroke-width="2" stroke-linecap="round" stroke-linejoin="round"/>
<path d="M45.4423 79.7636L49.5943 83.9083L53.7463 88.053" stroke="#461E96" stroke-width="2" stroke-linecap="round" stroke-linejoin="round"/>
<path d="M53.7463 79.7636L49.5943 83.9083L45.4423 88.053" stroke="#461E96" stroke-width="2" stroke-linecap="round" stroke-linejoin="round"/>
<path d="M167.266 81.5673C168.578 82.1452 169.605 83.2189 170.124 84.5525C170.643 85.8862 170.61 87.3709 170.033 88.6805L167.022 95.527L142.878 84.9229L145.889 78.0802C146.174 77.4279 146.586 76.8385 147.101 76.3458C147.616 75.8531 148.223 75.4669 148.888 75.2095C149.552 74.9521 150.262 74.8285 150.974 74.8459C151.687 74.8633 152.39 75.0213 153.041 75.3108L167.266 81.5673Z" fill="#F06EC2"/>
<path d="M167.466 95.7299L165.603 99.9572L141.029 89.1465L140.574 88.9436L142.437 84.72L142.893 84.9191L142.847 85.0243L166.965 95.6359L167.01 95.5307L167.466 95.7299Z" fill="#B2E8FF"/>
<path d="M167.01 95.5307L166.965 95.6359L142.847 85.0243L142.893 84.9191L167.01 95.5307Z" fill="white"/>
<path d="M165.603 99.9573L163.735 104.185L163.28 103.985L156 100.78L146.442 96.5754L139.162 93.3738L138.707 93.1709L140.574 88.9436L141.029 89.1465L165.603 99.9573Z" fill="#B2E8FF"/>
<path d="M156 100.78L163.28 103.985L129.627 180.217L125.389 170.12L156 100.78Z" fill="#FFB700"/>
<path d="M156 100.78L125.389 170.12L117.566 174.915L115.831 165.919L146.442 96.5754L156 100.78Z" fill="#FFB700"/>
<path d="M146.442 96.5754L115.831 165.919L105.505 169.609L139.162 93.3738L146.442 96.5754Z" fill="#FFB700"/>
<path d="M125.389 170.12L129.627 180.217L117.566 174.915L125.389 170.12Z" fill="#FFF6D9"/>
<path d="M129.627 180.217L113.068 193.376L106.951 190.686L105.505 169.609L117.566 174.915L129.627 180.217Z" fill="#FFF6D9"/>
<path d="M115.831 165.919L117.566 174.915L105.505 169.609L115.831 165.919Z" fill="#FFF6D9"/>
<path d="M113.068 193.376L107.44 197.848L106.951 190.686L113.068 193.376Z" fill="#461E96"/>
<path d="M163.28 103.985L129.627 180.217L113.068 193.376L107.44 197.848L106.951 190.686L105.505 169.609L139.162 93.3738" stroke="#461E96" stroke-width="2" stroke-linecap="round" stroke-linejoin="round"/>
<path d="M106.951 190.686L113.068 193.376" stroke="#461E96" stroke-width="2" stroke-linecap="round" stroke-linejoin="round"/>
<path d="M105.505 169.609L115.831 165.919L117.566 174.915" stroke="#461E96" stroke-width="2" stroke-linecap="round" stroke-linejoin="round"/>
<path d="M129.627 180.217L125.389 170.12L117.566 174.915" stroke="#461E96" stroke-width="2" stroke-linecap="round" stroke-linejoin="round"/>
<path d="M115.831 165.919L146.442 96.5754" stroke="#461E96" stroke-width="2" stroke-linecap="round" stroke-linejoin="round"/>
<path d="M125.389 170.12L156 100.78" stroke="#461E96" stroke-width="2" stroke-linecap="round" stroke-linejoin="round"/>
<path d="M167.01 95.5307L167.466 95.7299L165.603 99.9572L163.735 104.185L163.28 103.985L156 100.78L146.442 96.5754L139.162 93.3738L138.707 93.1709L140.574 88.9436L142.437 84.72L142.893 84.9191" stroke="#461E96" stroke-width="2" stroke-linecap="round" stroke-linejoin="round"/>
<path d="M167.01 95.5307L166.965 95.6359L142.847 85.0243L142.877 84.9229L145.889 78.0802C146.174 77.4279 146.586 76.8385 147.101 76.3458C147.616 75.8531 148.223 75.4669 148.888 75.2095C149.552 74.9521 150.262 74.8285 150.974 74.8459C151.687 74.8633 152.39 75.0213 153.041 75.3108L167.263 81.5673C168.574 82.1445 169.603 83.2179 170.122 84.5516C170.642 85.8854 170.61 87.3704 170.033 88.6805L167.01 95.5307Z" stroke="#461E96" stroke-width="2" stroke-linecap="round" stroke-linejoin="round"/>
<path d="M141.029 89.1465L165.603 99.9572" stroke="#461E96" stroke-width="2" stroke-linecap="round" stroke-linejoin="round"/>
</svg>
