<?xml version="1.0" encoding="utf-8"?>
<!-- Generator: Adobe Illustrator 16.0.0, SVG Export Plug-In . SVG Version: 6.00 Build 0)  -->
<!DOCTYPE svg PUBLIC "-//W3C//DTD SVG 1.1//EN" "http://www.w3.org/Graphics/SVG/1.1/DTD/svg11.dtd">
<svg version="1.1" id="Layer_1" xmlns="http://www.w3.org/2000/svg" xmlns:xlink="http://www.w3.org/1999/xlink" x="0px" y="0px"
	 width="1280px" height="800px" viewBox="0 0 1280 800" enable-background="new 0 0 1280 800" xml:space="preserve">
<g>
	<g>
		<path fill="#FFFFFF" d="M406.457,317.522h21.873l50.686,148.272h-18.08l-11.784-35.543h-63.09l-11.78,35.543h-18.295
			L406.457,317.522z M444.522,414.688l-26.708-80.761l-27.337,80.761H444.522z"/>
		<path fill="#FFFFFF" d="M506.042,464.951c-6.666-3.224-12.028-7.675-16.088-13.354c-4.075-5.679-6.312-12.163-6.733-19.454
			l15.564-3.574c0.279,5.329,1.751,10.025,4.417,14.092c2.659,4.067,6.236,7.148,10.726,9.253c4.485,2.102,9.463,3.152,14.932,3.152
			c4.764,0,9.042-0.696,12.831-2.102c3.781-1.397,6.832-3.472,9.147-6.206s3.468-5.709,3.468-8.937c0-3.646-1.258-6.624-3.781-8.94
			c-2.53-2.312-5.615-4.131-9.256-5.464c-3.646-1.333-8.413-2.769-14.303-4.316c-8.134-2.101-14.755-4.202-19.876-6.304
			c-5.114-2.105-9.43-5.224-12.933-9.362c-3.51-4.135-5.257-9.569-5.257-16.299c0-5.89,1.578-11.252,4.733-16.088
			c3.152-4.835,7.427-8.624,12.823-11.358c5.4-2.734,11.467-4.101,18.197-4.101c6.59,0,12.691,1.367,18.298,4.101
			c5.6,2.734,10.165,6.489,13.667,11.253c3.502,4.768,5.543,10.093,6.101,15.986l-15.564,3.992
			c-0.282-6.443-2.557-11.527-6.835-15.248c-4.278-3.709-9.641-5.57-16.088-5.57c-3.645,0-6.974,0.7-9.995,2.102
			c-3.013,1.4-5.393,3.363-7.147,5.89c-1.751,2.523-2.629,5.329-2.629,8.413c0,3.649,1.266,6.624,3.789,8.937
			s5.08,3.996,7.679,5.046c2.591,1.054,7.95,2.493,16.084,4.316c7.712,2.102,14.197,4.342,19.455,6.726
			c5.257,2.388,9.641,5.611,13.143,9.675c3.502,4.071,5.261,9.117,5.261,15.143c0,6.312-1.826,12.024-5.468,17.143
			c-3.649,5.118-8.59,9.113-14.827,11.987c-6.244,2.873-13.286,4.312-21.142,4.312C520.165,469.79,512.701,468.179,506.042,464.951z
			"/>
		<path fill="#FFFFFF" d="M596.997,513.953c-6.59-2.806-12.371-6.801-17.346-11.986c-4.979-5.189-8.801-11.147-11.463-17.877
			l13.459-9.042c2.38,8.548,6.801,15.455,13.248,20.712c6.447,5.258,13.949,7.89,22.505,7.89c6.59,0,12.375-1.649,17.346-4.944
			c4.979-3.295,8.906-7.78,11.783-13.459c2.874-5.676,4.312-12.093,4.312-19.24l-0.21-14.304c-1.966,3.507-4.561,6.625-7.78,9.358
			c-3.231,2.734-6.806,4.869-10.729,6.414c-3.928,1.544-7.92,2.315-11.987,2.315c-7.291,0-13.775-1.788-19.455-5.362
			s-10.062-8.481-13.143-14.725c-3.088-6.236-4.625-13.422-4.625-21.557v-68.562h15.983v68.562c0,5.333,0.979,9.991,2.944,13.986
			c1.958,3.996,4.764,7.186,8.41,9.569c3.642,2.388,7.852,3.574,12.62,3.574c5.182,0,9.882-1.262,14.092-3.785
			c4.203-2.522,7.536-5.991,9.987-10.408c2.456-4.418,3.684-9.431,3.684-15.038v-66.461h15.982l0.211,106.422
			c0,9.953-2.102,18.89-6.312,26.812c-4.203,7.92-10.025,14.123-17.455,18.611c-7.435,4.485-15.776,6.73-25.025,6.73
			C610.596,518.16,603.588,516.759,596.997,513.953z"/>
		<path fill="#FFFFFF" d="M687.854,359.584h14.514l1.469,14.092c2.945-5.468,7.22-9.848,12.835-13.147
			c5.604-3.288,11.493-4.94,17.662-4.94c7.291,0,13.775,1.826,19.454,5.468c5.68,3.649,10.097,8.59,13.249,14.827
			c3.156,6.244,4.733,13.357,4.733,21.349v68.562h-16.193v-68.562c0-5.186-0.949-9.811-2.843-13.881
			c-1.891-4.063-4.696-7.257-8.413-9.569c-3.713-2.312-7.954-3.472-12.722-3.472c-5.046,0-9.671,1.266-13.881,3.789
			c-4.203,2.523-7.569,5.992-10.093,10.409c-2.523,4.418-3.789,9.43-3.789,15.038v66.25h-15.982V359.584z"/>
		<path fill="#FFFFFF" d="M811.301,462.428c-7.565-4.907-13.455-11.671-17.662-20.295c-4.207-8.623-6.244-18.403-6.101-29.336
			c0-11.076,1.928-20.927,5.784-29.551s9.287-15.384,16.299-20.294c7.009-4.907,15.071-7.362,24.188-7.362
			c7.009,0,13.46,1.547,19.346,4.628c5.89,3.084,10.831,7.253,14.83,12.514c3.992,5.257,6.757,11.392,8.308,18.4l-15.357,4.207
			c-1.962-7.709-5.362-13.881-10.198-18.506c-4.835-4.628-10.552-6.94-17.142-6.94c-5.604,0-10.726,1.823-15.351,5.468
			c-4.624,3.645-8.235,8.729-10.831,15.244c-2.594,6.523-3.894,13.919-3.894,22.193s1.438,15.636,4.315,22.079
			c2.87,6.451,6.869,11.535,11.987,15.249c5.118,3.717,10.902,5.573,17.35,5.573c5.604,0,10.688-1.329,15.244-3.996
			c4.558-2.662,8.278-6.379,11.147-11.146c2.877-4.765,4.737-10.165,5.573-16.193l15.357,3.366
			c-1.126,8.131-3.894,15.388-8.308,21.764c-4.421,6.383-9.994,11.361-16.721,14.936c-6.729,3.574-14.167,5.362-22.294,5.362
			C827.498,469.79,818.878,467.335,811.301,462.428z"/>
		<path fill="#FFFFFF" d="M941.06,316.89h31.129l50.689,148.905h-26.294l-10.303-33.02h-58.885l-10.936,33.02h-25.872L941.06,316.89
			z M980.602,412.375l-23.767-73.191l-24.181,73.191H980.602z"/>
		<path fill="#FFFFFF" d="M1036.963,316.89h58.47c9.953,0,18.855,1.97,26.708,5.894c7.848,3.924,14.055,9.392,18.611,16.4
			c4.557,7.012,6.838,15.007,6.838,23.978c0,8.974-2.244,16.928-6.732,23.872c-4.489,6.937-10.691,12.442-18.611,16.506
			c-7.92,4.067-16.793,6.101-26.61,6.101h-34.066v56.154h-24.606V316.89z M1092.698,388.608c5.468,0,10.477-1.085,15.037-3.262
			c4.554-2.169,8.131-5.182,10.722-9.042c2.599-3.853,3.895-8.236,3.895-13.143c0-4.907-1.262-9.287-3.785-13.147
			c-2.527-3.853-6.029-6.869-10.519-9.042c-4.485-2.173-9.603-3.261-15.35-3.261h-31.129v50.896H1092.698z"/>
		<path fill="#FFFFFF" d="M1163.78,316.89h25.235v148.905h-25.235V316.89z"/>
	</g>
	<g>
		<path fill="#FFFFFF" d="M181.484,524.524c-48.938,0-88.751-29.676-88.751-66.152h17.576c0,26.783,31.931,48.573,71.176,48.573
			s71.176-21.79,71.176-48.573h17.575C270.235,494.849,230.426,524.524,181.484,524.524z"/>
	</g>
	<g>
		<path fill="#FFFFFF" d="M270.235,342.867H252.66c0-26.783-31.932-48.573-71.176-48.573s-71.176,21.79-71.176,48.573H92.732
			c0-36.477,39.813-66.152,88.751-66.152C230.426,276.715,270.235,306.391,270.235,342.867z"/>
	</g>
	<g>
		
			<rect x="98.921" y="391.859" transform="matrix(0.8099 0.5866 -0.5866 0.8099 264.5396 -14.97)" fill="#FFFFFF" width="112.889" height="17.575"/>
	</g>
	<g>
		<polygon fill="#FFFFFF" points="248.868,440.77 157.438,374.554 167.742,360.318 259.179,426.535 		"/>
	</g>
</g>
</svg>
