<?xml version="1.0" encoding="utf-8"?>
<!-- Generator: Adobe Illustrator 16.0.0, SVG Export Plug-In . SVG Version: 6.00 Build 0)  -->
<!DOCTYPE svg PUBLIC "-//W3C//DTD SVG 1.1//EN" "http://www.w3.org/Graphics/SVG/1.1/DTD/svg11.dtd">
<svg version="1.1" id="Layer_1" xmlns="http://www.w3.org/2000/svg" xmlns:xlink="http://www.w3.org/1999/xlink" x="0px" y="0px"
	 width="1680.952px" height="1057.143px" viewBox="0 0 1680.952 1057.143" enable-background="new 0 0 1680.952 1057.143"
	 xml:space="preserve">
<g>
	<g>
		<path fill-rule="evenodd" clip-rule="evenodd" fill="#F1F4F7" d="M88.017,950.614c878.409,78.142,1382.519,78.142,1512.326,0
			c67.57-309.283-60.018-628.538-322.139-806.061c-262.122-177.522-605.928-177.522-868.048,0
			C148.035,322.076,20.445,641.331,88.017,950.614"/>
		<path fill-rule="evenodd" clip-rule="evenodd" fill="#FFFFFF" d="M767.549,445.252c87.103,0,157.714,70.61,157.714,157.713
			c0,87.103-70.611,157.714-157.714,157.714c-87.104,0-157.714-70.611-157.714-157.714
			C609.834,515.862,680.445,445.252,767.549,445.252"/>
		<path fill-rule="evenodd" clip-rule="evenodd" fill="#ACC7DA" d="M298.934,282.971c1.102,1.539,1.653,2.308,1.653,2.308
			c3.001-1.851,6.27-2.581,9.808-2.192c5.866,0.393,11.55-2.117,15.213-6.716c3.661-4.598,4.835-10.701,3.138-16.329
			c-3.543-8.255-2.624-14.003,2.756-17.245c-9.743-2.184-19.907,1.053-26.593,8.468c-6.687,7.416-8.859,17.859-5.683,27.325
			C299.889,280.238,299.791,281.699,298.934,282.971"/>
		<path fill-rule="evenodd" clip-rule="evenodd" fill="#79ABC6" d="M299.214,288.771c-0.086,0.547-0.486,0.993-1.021,1.139
			c-0.534,0.146-1.104-0.035-1.457-0.462c-0.353-0.427-0.422-1.021-0.178-1.518c1.398-4.014,4.199-8.237,8.4-12.67
			c-2.928-5.1-3.654-11.193-1.976-16.86c0.071-0.243,0.308-0.398,0.559-0.365c0.251,0.032,0.44,0.243,0.445,0.496
			c-1.194,5.283-0.44,10.807,2.102,15.565c0.816-0.821,1.681-1.65,2.593-2.486c0.85-0.726,1.67-1.491,2.459-2.293
			c-3.048-5.149-3.824-11.346-2.119-17.106c0.07-0.242,0.307-0.397,0.558-0.364c0.25,0.032,0.44,0.243,0.446,0.496
			c-1.215,5.368-0.416,10.988,2.226,15.797c1.465-1.617,2.813-3.373,4.046-5.267c-2.692-4.995-3.318-10.873-1.695-16.355
			c0.071-0.243,0.308-0.398,0.559-0.365c0.25,0.033,0.439,0.243,0.446,0.496c-1.121,4.957-0.526,10.128,1.651,14.677
			c2.603-4.379,4.633-9.449,6.089-15.207c0.068-0.168,0.221-0.286,0.401-0.31c0.179-0.025,0.358,0.05,0.468,0.194
			c0.11,0.143,0.135,0.336,0.065,0.502c-0.566,4.522-1.723,8.728-3.472,12.618c1.931-0.168,3.848-0.587,5.7-1.259
			c0.252-0.024,0.485,0.136,0.549,0.381c0.064,0.244-0.061,0.499-0.292,0.599c-2.131,0.934-4.373,1.506-6.639,1.719
			c-0.703,1.41-1.486,2.778-2.351,4.102c3.32,0.332,6.704-0.076,9.897-1.232c0.251-0.026,0.484,0.136,0.547,0.38
			c0.064,0.245-0.06,0.499-0.292,0.6c-3.533,1.547-7.373,2.102-11.121,1.67c-1.342,1.878-2.855,3.666-4.54,5.361
			c4.382,1.144,9.035,0.946,13.343-0.614c0.251-0.026,0.484,0.136,0.548,0.38c0.064,0.246-0.061,0.499-0.292,0.601
			c-4.734,2.073-10.016,2.363-14.895,0.889c-0.112,0.105-0.226,0.209-0.34,0.313c-1.611,1.613-3.055,3.136-4.329,4.57
			c4.608,1.384,9.564,1.261,14.132-0.393c0.252-0.025,0.485,0.137,0.548,0.38c0.064,0.245-0.06,0.501-0.292,0.6
			c-4.931,2.161-10.458,2.386-15.504,0.695C301.711,282.956,299.72,286.257,299.214,288.771"/>
		<path fill-rule="evenodd" clip-rule="evenodd" fill="#B5CDDD" d="M272.961,522.47c-3.735-2.235-5.603-3.351-5.603-3.351
			c3.673-7.228,4.728-14.858,3.165-22.893c-2.012-13.367,2.662-26.871,12.507-36.135c9.844-9.263,23.607-13.109,36.827-10.289
			c19.588,6.554,32.586,3.358,38.998-9.584c6.85,21.913,1.359,45.819-14.368,62.548c-15.726,16.73-39.246,23.685-61.542,18.202
			C279.042,519.763,275.714,520.263,272.961,522.47"/>
		<path fill-rule="evenodd" clip-rule="evenodd" fill="#79ABC6" d="M259.617,522.926c-1.237,0.302-2.183,1.302-2.416,2.554
			c-0.233,1.253,0.29,2.525,1.335,3.253c1.046,0.727,2.421,0.774,3.514,0.121c8.932-3.966,18.08-11.184,27.443-21.652
			c12.243,5.744,26.342,6.251,39.011,1.331c0.543-0.209,0.854-0.781,0.731-1.349c-0.122-0.568-0.64-0.962-1.221-0.928
			c-11.88,3.739-24.684,3.06-36.069-1.864c1.728-2.028,3.464-4.166,5.206-6.414c1.504-2.088,3.1-4.111,4.786-6.07
			c12.379,6.009,26.73,6.614,39.604,1.614c0.542-0.208,0.852-0.781,0.73-1.349c-0.123-0.568-0.641-0.962-1.221-0.928
			c-12.074,3.801-25.101,3.036-36.623-2.109c3.426-3.662,7.194-7.085,11.302-10.269c11.956,5.224,25.548,5.543,37.802,0.783
			c0.543-0.207,0.852-0.78,0.73-1.348c-0.122-0.568-0.641-0.962-1.221-0.928c-11.149,3.509-23.11,3.126-33.949-1.003
			c9.544-6.797,20.775-12.409,33.698-16.835c0.371-0.189,0.614-0.561,0.635-0.978c0.02-0.416-0.183-0.812-0.534-1.037
			c-0.352-0.224-0.795-0.243-1.165-0.051c-10.256,2.151-19.675,5.601-28.257,10.349c0.02-4.459,0.617-8.932,1.804-13.305
			c0.011-0.581-0.405-1.084-0.977-1.183c-0.572-0.1-1.132,0.233-1.318,0.783c-1.735,5.059-2.621,10.306-2.678,15.539
			c-3.101,1.878-6.086,3.933-8.956,6.166c-1.391-7.549-1.098-15.379,0.947-22.915c0.011-0.581-0.403-1.083-0.976-1.183
			c-0.572-0.099-1.133,0.233-1.319,0.784c-2.877,8.389-3.42,17.293-1.719,25.803c-4.051,3.431-7.859,7.237-11.425,11.419
			c-3.452-9.822-3.88-20.525-1.122-30.693c0.011-0.582-0.404-1.084-0.976-1.183c-0.573-0.1-1.133,0.232-1.318,0.783
			c-3.855,11.238-3.521,23.401,0.785,34.301c-0.219,0.278-0.438,0.556-0.654,0.838c-3.391,4-6.609,7.598-9.652,10.79
			c-4.047-10.299-4.705-21.68-1.779-32.463c0.01-0.581-0.405-1.084-0.977-1.183c-0.572-0.099-1.132,0.234-1.319,0.784
			c-4.015,11.707-3.485,24.418,1.346,35.661C272.472,516.101,265.281,521.29,259.617,522.926"/>
		<path fill-rule="evenodd" clip-rule="evenodd" fill="#BCD1E0" d="M378.358,363.638c0.259,2.108,0.389,3.161,0.389,3.161
			c3.95-0.212,7.564,0.824,10.84,3.107c5.57,3.536,12.518,4.115,18.595,1.551c6.077-2.565,10.509-7.948,11.861-14.404
			c0.941-10.035,4.932-15.206,11.975-15.512c-8.429-7.383-20.18-9.651-30.75-5.934c-10.57,3.716-18.316,12.839-20.269,23.872
			C380.765,361.458,379.885,362.845,378.358,363.638"/>
		<path fill-rule="evenodd" clip-rule="evenodd" fill="#79ABC6" d="M375.52,369.503c-0.378,0.492-1.011,0.717-1.616,0.573
			c-0.606-0.143-1.07-0.627-1.188-1.237c-0.119-0.61,0.132-1.233,0.639-1.592c3.533-3.203,8.559-5.861,15.08-7.973
			c-0.148-6.597,2.409-12.989,7.106-17.672c0.199-0.202,0.516-0.227,0.745-0.06c0.23,0.166,0.303,0.476,0.173,0.728
			c-4.014,4.564-6.237,10.411-6.286,16.464c1.245-0.371,2.542-0.724,3.889-1.057c1.229-0.259,2.446-0.572,3.654-0.939
			c-0.239-6.709,2.323-13.232,7.096-17.991c0.2-0.201,0.517-0.226,0.746-0.06c0.23,0.167,0.302,0.476,0.173,0.728
			c-4.079,4.638-6.309,10.603-6.287,16.76c2.311-0.806,4.582-1.812,6.813-3.018c0.029-6.366,2.569-12.494,7.112-17.023
			c0.2-0.201,0.516-0.227,0.746-0.06c0.229,0.166,0.303,0.476,0.174,0.728c-3.768,4.283-5.957,9.697-6.254,15.348
			c4.917-2.917,9.638-6.822,14.164-11.715c0.157-0.129,0.372-0.162,0.561-0.09c0.191,0.073,0.326,0.241,0.358,0.443
			c0.031,0.201-0.048,0.403-0.207,0.529c-2.984,4.153-6.383,7.676-10.195,10.568c1.993,0.871,4.107,1.487,6.293,1.822
			c0.261,0.108,0.404,0.393,0.335,0.669c-0.068,0.275-0.327,0.459-0.609,0.433c-2.601-0.224-5.117-0.864-7.464-1.872
			c-1.45,1.014-2.956,1.94-4.519,2.78c3.094,2.111,6.646,3.525,10.413,4.1c0.261,0.11,0.404,0.394,0.335,0.669
			c-0.068,0.275-0.327,0.459-0.609,0.434c-4.312-0.372-8.393-1.887-11.855-4.325c-2.331,1.13-4.781,2.078-7.351,2.844
			c3.702,3.48,8.394,5.783,13.476,6.559c0.261,0.11,0.404,0.394,0.335,0.669c-0.068,0.275-0.327,0.459-0.609,0.434
			c-5.777-0.498-11.138-3.048-15.154-7.121c-0.167,0.043-0.334,0.085-0.503,0.127c-2.453,0.724-4.694,1.449-6.719,2.178
			c3.797,3.838,8.746,6.378,14.135,7.201c0.262,0.11,0.404,0.393,0.335,0.669c-0.068,0.275-0.327,0.459-0.608,0.434
			c-6.019-0.519-11.586-3.264-15.649-7.639C381.103,365.114,377.369,367.298,375.52,369.503"/>
		<path fill-rule="evenodd" clip-rule="evenodd" fill="#BCD1E0" d="M279.604,411.051c-1.784-5.273-2.675-7.91-2.675-7.91
			c9.57-3.99,16.926-10.545,22.067-19.664c9.129-14.684,24.879-23.954,42.148-24.809c17.268-0.854,33.856,6.817,44.39,20.527
			c13.635,22.627,28.941,30.298,45.919,23.013c-11.507,27.018-36.68,45.739-65.867,48.984c-29.187,3.244-57.857-9.491-75.015-33.323
			C287.77,413.459,284.114,411.188,279.604,411.051"/>
		<path fill-rule="evenodd" clip-rule="evenodd" fill="#79ABC6" d="M266.232,400.427c-1.456-0.731-3.205-0.542-4.47,0.483
			c-1.265,1.027-1.813,2.699-1.398,4.274c0.415,1.576,1.714,2.762,3.321,3.033c11.985,3.546,26.878,4.106,44.677,1.68
			c7.156,15.746,20.461,27.934,36.879,33.652c0.7,0.247,1.477-0.053,1.829-0.708c0.352-0.655,0.175-1.468-0.418-1.917
			c-14.669-6.211-26.571-17.493-33.571-31.729c3.363-0.542,6.826-1.184,10.387-1.928c3.196-0.785,6.428-1.431,9.695-1.939
			c7.069,16.117,20.537,28.608,37.219,34.417c0.702,0.248,1.478-0.053,1.83-0.707c0.352-0.655,0.175-1.468-0.418-1.916
			c-14.909-6.314-26.958-17.863-33.91-32.428c6.374-0.725,12.882-0.932,19.523-0.623c7.308,15.001,20.275,26.584,36.155,32.114
			c0.7,0.247,1.477-0.053,1.83-0.708c0.351-0.654,0.173-1.468-0.419-1.916c-13.766-5.83-25.094-16.123-32.223-29.134
			c14.93,1.298,30.52,5.15,46.772,11.558c0.519,0.125,1.063-0.038,1.429-0.426c0.365-0.388,0.494-0.941,0.34-1.451
			c-0.155-0.51-0.571-0.898-1.091-1.016c-11.77-6.413-23.802-10.865-36.094-13.362c3.718-4.324,8.008-8.183,12.79-11.457
			c0.493-0.557,0.505-1.39,0.031-1.962c-0.475-0.572-1.296-0.712-1.934-0.33c-5.885,3.487-11.098,7.859-15.495,12.907
			c-4.576-0.743-9.187-1.218-13.833-1.425c4.906-8.502,11.685-15.882,19.928-21.524c0.492-0.557,0.505-1.39,0.03-1.962
			c-0.475-0.571-1.296-0.712-1.933-0.33c-9.76,5.781-17.674,14-23.077,23.697c-6.789-0.02-13.654,0.528-20.594,1.642
			c4.787-12.428,13.245-23.202,24.365-30.815c0.493-0.557,0.505-1.39,0.031-1.961c-0.475-0.573-1.296-0.713-1.934-0.331
			c-13.073,7.745-22.835,19.863-27.685,34.048c-0.443,0.088-0.887,0.179-1.331,0.272c-6.619,1.082-12.735,1.917-18.346,2.5
			c4.601-13.382,13.401-25.009,25.192-33.082c0.492-0.557,0.504-1.389,0.03-1.961c-0.475-0.571-1.296-0.712-1.934-0.33
			c-13.62,8.068-23.646,20.884-28.266,35.836C284.409,404.444,273.105,403.533,266.232,400.427"/>
		<path fill-rule="evenodd" clip-rule="evenodd" fill="#BCD1E0" d="M375.814,322.688l-4.201-2.862
			c3.187-5.45,4.358-11.333,3.511-17.651c-0.949-10.483,3.306-20.766,11.384-27.513c8.078-6.75,18.954-9.106,29.101-6.307
			c14.925,5.996,25.177,4.109,30.755-5.658c4.318,17.35-1.05,35.681-14.043,47.963c-12.993,12.281-31.598,16.607-48.677,11.32
			C380.666,320.863,378.055,321.1,375.814,322.688"/>
		<path fill-rule="evenodd" clip-rule="evenodd" fill="#79ABC6" d="M365.419,322.43c-0.976,0.179-1.756,0.911-1.995,1.875
			c-0.238,0.962,0.108,1.976,0.888,2.589c0.779,0.613,1.845,0.713,2.726,0.255c7.125-2.671,14.568-7.862,22.328-15.569
			c9.252,5.028,20.189,6.07,30.264,2.828c0.432-0.138,0.699-0.568,0.63-1.015c-0.069-0.447-0.454-0.778-0.906-0.778
			c-9.407,2.361-19.33,1.244-27.953-3.106c1.436-1.498,2.884-3.08,4.342-4.747c1.265-1.554,2.598-3.053,4-4.499
			c9.346,5.24,20.473,6.371,30.711,3.076c0.432-0.137,0.698-0.569,0.629-1.016c-0.069-0.447-0.453-0.777-0.906-0.777
			c-9.561,2.399-19.652,1.206-28.372-3.323c2.831-2.69,5.918-5.176,9.258-7.463c9.053,4.61,19.604,5.483,29.349,2.347
			c0.431-0.137,0.699-0.569,0.63-1.016c-0.069-0.447-0.455-0.777-0.907-0.777c-8.828,2.215-18.108,1.368-26.344-2.34
			c7.732-4.846,16.72-8.691,26.968-11.538c0.298-0.129,0.503-0.408,0.539-0.731c0.035-0.322-0.105-0.639-0.367-0.83
			c-0.262-0.191-0.608-0.226-0.904-0.093c-8.071,1.201-15.551,3.449-22.44,6.745c0.22-3.466,0.89-6.915,2.013-10.26
			c0.035-0.451-0.264-0.86-0.704-0.964c-0.441-0.104-0.891,0.129-1.061,0.549c-1.582,3.852-2.512,7.89-2.797,11.955
			c-2.495,1.318-4.911,2.778-7.245,4.382c-0.734-5.931-0.145-12.005,1.791-17.771c0.034-0.451-0.265-0.86-0.706-0.964
			c-0.44-0.104-0.89,0.129-1.06,0.548c-2.623,6.389-3.454,13.286-2.524,19.979c-3.306,2.482-6.441,5.265-9.405,8.352
			c-2.232-7.794-2.074-16.133,0.539-23.911c0.034-0.451-0.264-0.861-0.705-0.964s-0.89,0.128-1.061,0.548
			c-3.513,8.558-3.812,18.029-0.967,26.7c-0.182,0.206-0.365,0.412-0.547,0.621c-2.819,2.954-5.485,5.602-7.999,7.944
			c-2.671-8.192-2.66-17.07,0.11-25.317c0.035-0.451-0.264-0.861-0.705-0.964c-0.44-0.103-0.89,0.129-1.061,0.548
			c-3.659,8.916-3.831,18.822-0.592,27.783C375.726,317.715,369.898,321.417,365.419,322.43"/>
		<path fill-rule="evenodd" clip-rule="evenodd" fill="#BCD1E0" d="M289.817,345.17c1.995,4.027,2.993,6.042,2.993,6.042
			c7.741-3.192,15.684-3.655,23.827-1.39c13.598,3.161,27.883-0.549,38.223-9.928c10.341-9.38,15.423-23.235,13.599-37.076
			c-5.15-20.701-0.8-33.824,13.049-39.369c-22.003-8.84-47.063-5.137-65.569,9.688c-18.507,14.826-27.587,38.474-23.761,61.876
			C293.1,339.13,292.313,342.517,289.817,345.17"/>
		<path fill-rule="evenodd" clip-rule="evenodd" fill="#79ABC6" d="M288.259,358.873c-0.413,1.249-1.519,2.141-2.826,2.278
			c-1.309,0.139-2.576-0.504-3.24-1.64c-0.663-1.136-0.6-2.555,0.162-3.626c4.811-8.873,12.989-17.702,24.531-26.489
			c-4.915-13.072-4.288-27.629,1.812-40.272c0.259-0.542,0.873-0.814,1.449-0.642c0.574,0.173,0.938,0.739,0.856,1.333
			c-4.82,11.927-5.165,25.164-1.024,37.287c2.229-1.614,4.571-3.226,7.028-4.837c2.271-1.377,4.485-2.855,6.64-4.433
			c-5.177-13.234-4.63-28.057,1.569-40.904c0.259-0.542,0.874-0.814,1.448-0.642c0.575,0.172,0.939,0.739,0.857,1.334
			c-4.899,12.12-5.175,25.594-0.818,37.876c4.051-3.228,7.882-6.829,11.495-10.799c-4.402-12.735-3.622-26.754,2.278-38.982
			c0.258-0.542,0.873-0.814,1.448-0.641c0.575,0.172,0.938,0.737,0.856,1.332c-4.523,11.192-5.104,23.538-1.737,35.034
			c7.776-9.271,14.47-20.377,20.081-33.319c0.224-0.368,0.629-0.586,1.059-0.574c0.43,0.013,0.82,0.255,1.023,0.634
			c0.203,0.379,0.187,0.838-0.042,1.203c-3.051,10.384-7.372,19.8-12.96,28.247c4.593,0.344,9.246,0.094,13.847-0.771
			c0.598,0.036,1.081,0.505,1.136,1.102c0.057,0.597-0.331,1.147-0.914,1.293c-5.349,1.374-10.823,1.858-16.217,1.491
			c-2.185,3.038-4.544,5.943-7.077,8.717c7.657,2.047,15.742,2.384,23.669,0.893c0.599,0.037,1.082,0.505,1.138,1.102
			s-0.333,1.147-0.914,1.294c-8.872,2.277-18.084,2.109-26.707-0.336c-3.863,3.892-8.092,7.502-12.688,10.832
			c9.832,4.355,20.815,5.67,31.51,3.658c0.598,0.037,1.081,0.505,1.137,1.102c0.056,0.598-0.332,1.147-0.914,1.294
			c-11.885,3.051-24.38,1.715-35.25-3.607c-0.305,0.202-0.609,0.405-0.916,0.605c-4.395,3.164-8.361,6.183-11.896,9.057
			c10.272,5.006,21.937,6.613,33.276,4.48c0.599,0.036,1.083,0.504,1.138,1.102c0.055,0.597-0.332,1.147-0.914,1.294
			c-12.381,3.179-25.424,1.595-36.605-4.296C296.334,346.194,290.406,353.173,288.259,358.873"/>
		<path fill-rule="evenodd" clip-rule="evenodd" fill="#E6ECF1" d="M264.95,650.414c444.353,142.542,708.44,141.686,792.257-2.569
			c0,0-259.319-28.662-777.957-85.986C243.726,629.179,238.958,658.697,264.95,650.414"/>
		<path fill-rule="evenodd" clip-rule="evenodd" fill="#DCE6ED" d="M741.192,804.523c505.992,14.788,709.227-69.594,609.706-253.146
			C877.884,666.319,641.376,723.789,641.376,723.789C707.92,777.611,741.192,804.523,741.192,804.523"/>
		<path fill-rule="evenodd" clip-rule="evenodd" fill="#D5E1EA" d="M296.936,798.1c447.759,82.813,671.373,76.553,670.845-18.782
			c0,0-233.512-58.615-700.532-175.847C258.877,735.735,268.771,800.612,296.936,798.1"/>
		<path fill-rule="evenodd" clip-rule="evenodd" fill="#C1D4E2" d="M315.543,998.321
			c438.121-45.517,644.047-115.386,617.783-209.608c0,0-212.155-18.037-636.462-54.112
			C203.763,899.77,209.99,987.677,315.543,998.321"/>
		<path fill-rule="evenodd" clip-rule="evenodd" fill="#B9CFDE" d="M1350.819,617.503c-3.604,222.073-5.403,333.11-5.403,333.11
			H439.931C439.931,950.614,743.56,839.577,1350.819,617.503"/>
		<path fill-rule="evenodd" clip-rule="evenodd" fill="#ACC7DA" d="M1352.273,266.601c-1.104,1.539-1.653,2.308-1.653,2.308
			c-3-1.851-6.271-2.581-9.807-2.191c-5.866,0.392-11.552-2.118-15.214-6.717c-3.662-4.598-4.834-10.7-3.139-16.329
			c3.542-8.255,2.624-14.003-2.756-17.245c9.743-2.183,19.907,1.053,26.593,8.469c6.688,7.415,8.859,17.858,5.683,27.325
			C1351.318,263.869,1351.416,265.329,1352.273,266.601"/>
		<path fill-rule="evenodd" clip-rule="evenodd" fill="#79ABC6" d="M1351.993,272.401c0.087,0.547,0.484,0.993,1.021,1.138
			c0.534,0.147,1.104-0.034,1.457-0.462c0.353-0.426,0.422-1.021,0.178-1.517c-1.397-4.014-4.197-8.237-8.399-12.671
			c2.929-5.099,3.655-11.192,1.975-16.86c-0.068-0.242-0.307-0.397-0.558-0.364c-0.25,0.032-0.44,0.243-0.445,0.496
			c1.194,5.283,0.441,10.807-2.101,15.565c-0.818-0.822-1.683-1.65-2.595-2.486c-0.851-0.728-1.671-1.492-2.459-2.293
			c3.049-5.149,3.825-11.346,2.119-17.106c-0.069-0.243-0.307-0.398-0.557-0.364c-0.252,0.032-0.441,0.242-0.447,0.496
			c1.214,5.368,0.416,10.987-2.227,15.797c-1.464-1.617-2.813-3.373-4.045-5.268c2.691-4.994,3.316-10.872,1.693-16.354
			c-0.069-0.243-0.306-0.398-0.558-0.365c-0.25,0.033-0.44,0.243-0.447,0.496c1.123,4.957,0.528,10.128-1.65,14.677
			c-2.604-4.38-4.634-9.449-6.089-15.208c-0.067-0.167-0.221-0.285-0.399-0.309c-0.18-0.025-0.36,0.05-0.469,0.194
			c-0.109,0.143-0.136,0.336-0.064,0.502c0.564,4.522,1.722,8.728,3.472,12.618c-1.932-0.168-3.849-0.587-5.701-1.259
			c-0.252-0.025-0.483,0.136-0.549,0.381c-0.062,0.244,0.062,0.499,0.293,0.599c2.131,0.933,4.372,1.505,6.64,1.719
			c0.702,1.41,1.485,2.777,2.35,4.102c-3.321,0.332-6.704-0.076-9.896-1.232c-0.251-0.026-0.484,0.136-0.548,0.38
			c-0.062,0.245,0.061,0.499,0.293,0.6c3.531,1.547,7.371,2.102,11.121,1.67c1.342,1.878,2.854,3.666,4.538,5.361
			c-4.381,1.144-9.033,0.946-13.342-0.614c-0.251-0.026-0.483,0.136-0.547,0.38c-0.065,0.245,0.06,0.499,0.292,0.6
			c4.732,2.074,10.015,2.364,14.893,0.89c0.113,0.105,0.228,0.209,0.341,0.313c1.611,1.613,3.056,3.136,4.331,4.57
			c-4.608,1.384-9.565,1.261-14.135-0.394c-0.252-0.025-0.482,0.137-0.547,0.381c-0.063,0.245,0.061,0.5,0.292,0.6
			c4.931,2.161,10.458,2.386,15.504,0.695C1349.496,266.586,1351.486,269.887,1351.993,272.401"/>
		<path fill-rule="evenodd" clip-rule="evenodd" fill="#B5CDDD" d="M1378.246,506.1c3.733-2.234,5.603-3.351,5.603-3.351
			c-3.673-7.228-4.728-14.858-3.165-22.893c2.012-13.366-2.662-26.871-12.506-36.135c-9.845-9.263-23.607-13.109-36.828-10.289
			c-19.587,6.554-32.587,3.359-38.998-9.584c-6.849,21.914-1.358,45.819,14.367,62.549c15.727,16.729,39.248,23.685,61.544,18.201
			C1372.165,503.394,1375.493,503.894,1378.246,506.1"/>
		<path fill-rule="evenodd" clip-rule="evenodd" fill="#79ABC6" d="M1391.591,506.556c1.236,0.302,2.182,1.302,2.415,2.554
			c0.232,1.253-0.288,2.526-1.335,3.253c-1.046,0.727-2.421,0.775-3.514,0.121c-8.932-3.966-18.079-11.183-27.442-21.652
			c-12.243,5.744-26.342,6.252-39.013,1.331c-0.543-0.208-0.852-0.781-0.729-1.348c0.123-0.569,0.641-0.963,1.221-0.929
			c11.88,3.739,24.685,3.06,36.069-1.864c-1.729-2.028-3.463-4.166-5.206-6.414c-1.503-2.088-3.1-4.11-4.787-6.07
			c-12.378,6.009-26.729,6.615-39.602,1.614c-0.543-0.208-0.854-0.781-0.73-1.348c0.122-0.569,0.64-0.963,1.22-0.929
			c12.074,3.801,25.103,3.036,36.623-2.109c-3.425-3.662-7.193-7.084-11.302-10.269c-11.956,5.224-25.547,5.544-37.802,0.784
			c-0.543-0.208-0.854-0.781-0.73-1.349s0.641-0.962,1.22-0.928c11.15,3.51,23.111,3.126,33.95-1.003
			c-9.543-6.797-20.775-12.409-33.696-16.835c-0.372-0.189-0.614-0.561-0.636-0.977c-0.021-0.416,0.184-0.813,0.534-1.037
			c0.351-0.224,0.794-0.244,1.165-0.051c10.255,2.15,19.674,5.6,28.256,10.348c-0.02-4.459-0.616-8.932-1.803-13.305
			c-0.011-0.581,0.403-1.084,0.975-1.183c0.574-0.1,1.134,0.233,1.32,0.783c1.735,5.059,2.621,10.306,2.678,15.54
			c3.1,1.877,6.085,3.932,8.956,6.165c1.39-7.549,1.097-15.378-0.949-22.915c-0.01-0.581,0.404-1.083,0.979-1.183
			c0.571-0.099,1.132,0.233,1.318,0.784c2.877,8.389,3.42,17.294,1.72,25.803c4.05,3.431,7.858,7.238,11.425,11.42
			c3.451-9.823,3.879-20.526,1.121-30.694c-0.011-0.582,0.404-1.084,0.976-1.183c0.573-0.1,1.133,0.232,1.319,0.783
			c3.854,11.238,3.52,23.401-0.786,34.301c0.22,0.278,0.438,0.557,0.655,0.838c3.389,4,6.607,7.598,9.65,10.79
			c4.048-10.298,4.705-21.68,1.779-32.463c-0.01-0.581,0.404-1.083,0.978-1.182c0.571-0.099,1.133,0.233,1.317,0.783
			c4.017,11.707,3.485,24.419-1.345,35.661C1378.736,499.731,1385.926,504.919,1391.591,506.556"/>
		<path fill-rule="evenodd" clip-rule="evenodd" fill="#BCD1E0" d="M1272.85,347.269c-0.26,2.108-0.391,3.161-0.391,3.161
			c-3.949-0.212-7.562,0.823-10.84,3.107c-5.568,3.536-12.517,4.115-18.595,1.55c-6.076-2.565-10.509-7.947-11.861-14.403
			c-0.939-10.035-4.932-15.206-11.973-15.512c8.427-7.383,20.18-9.651,30.749-5.934c10.568,3.716,18.315,12.839,20.269,23.872
			C1270.441,345.088,1271.321,346.476,1272.85,347.269"/>
		<path fill-rule="evenodd" clip-rule="evenodd" fill="#79ABC6" d="M1275.687,353.133c0.38,0.493,1.013,0.717,1.616,0.574
			c0.605-0.143,1.071-0.628,1.189-1.238c0.117-0.61-0.132-1.232-0.64-1.591c-3.532-3.203-8.561-5.862-15.079-7.974
			c0.146-6.597-2.409-12.989-7.106-17.672c-0.201-0.201-0.517-0.227-0.747-0.06c-0.228,0.167-0.301,0.476-0.172,0.729
			c4.014,4.563,6.237,10.41,6.287,16.464c-1.246-0.372-2.542-0.724-3.89-1.057c-1.229-0.26-2.446-0.573-3.653-0.939
			c0.237-6.71-2.324-13.233-7.097-17.992c-0.199-0.201-0.517-0.226-0.746-0.06c-0.229,0.167-0.304,0.477-0.174,0.729
			c4.079,4.637,6.311,10.602,6.288,16.759c-2.311-0.805-4.581-1.812-6.813-3.017c-0.029-6.367-2.569-12.495-7.112-17.024
			c-0.199-0.201-0.516-0.227-0.746-0.06c-0.229,0.167-0.302,0.476-0.173,0.728c3.768,4.283,5.956,9.697,6.252,15.348
			c-4.916-2.917-9.637-6.822-14.163-11.714c-0.156-0.13-0.371-0.163-0.562-0.091c-0.189,0.073-0.325,0.241-0.357,0.443
			c-0.03,0.2,0.048,0.403,0.207,0.53c2.985,4.152,6.384,7.675,10.196,10.568c-1.994,0.87-4.107,1.487-6.294,1.821
			c-0.261,0.109-0.404,0.393-0.335,0.669c0.068,0.275,0.327,0.459,0.61,0.434c2.601-0.224,5.115-0.865,7.463-1.872
			c1.45,1.013,2.956,1.939,4.519,2.779c-3.094,2.111-6.646,3.525-10.414,4.1c-0.26,0.111-0.402,0.395-0.334,0.67
			s0.328,0.458,0.61,0.433c4.31-0.372,8.392-1.886,11.854-4.325c2.331,1.13,4.782,2.079,7.353,2.845
			c-3.703,3.479-8.396,5.783-13.479,6.558c-0.26,0.11-0.402,0.395-0.335,0.67c0.069,0.274,0.329,0.459,0.611,0.433
			c5.774-0.498,11.137-3.048,15.152-7.12c0.168,0.043,0.335,0.085,0.503,0.126c2.453,0.724,4.693,1.45,6.721,2.178
			c-3.797,3.838-8.747,6.379-14.137,7.201c-0.262,0.11-0.403,0.394-0.335,0.669c0.067,0.276,0.327,0.46,0.609,0.434
			c6.018-0.519,11.585-3.264,15.649-7.639C1270.104,348.744,1273.839,350.928,1275.687,353.133"/>
		<path fill-rule="evenodd" clip-rule="evenodd" fill="#BCD1E0" d="M1371.603,394.682c1.784-5.273,2.677-7.91,2.677-7.91
			c-9.572-3.99-16.927-10.545-22.068-19.664c-9.129-14.684-24.88-23.954-42.147-24.809c-17.269-0.854-33.857,6.816-44.391,20.527
			c-13.634,22.627-28.939,30.298-45.918,23.013c11.505,27.017,36.681,45.738,65.866,48.984c29.187,3.244,57.857-9.491,75.016-33.323
			C1363.438,397.09,1367.092,394.818,1371.603,394.682"/>
		<path fill-rule="evenodd" clip-rule="evenodd" fill="#79ABC6" d="M1384.976,384.057c1.455-0.731,3.204-0.542,4.47,0.484
			c1.265,1.026,1.812,2.699,1.396,4.274c-0.414,1.575-1.714,2.762-3.319,3.032c-11.986,3.546-26.879,4.106-44.677,1.68
			c-7.156,15.746-20.463,27.934-36.879,33.652c-0.702,0.248-1.479-0.053-1.83-0.708c-0.353-0.654-0.175-1.467,0.419-1.916
			c14.669-6.212,26.57-17.494,33.57-31.73c-3.363-0.542-6.827-1.184-10.387-1.927c-3.197-0.786-6.428-1.431-9.695-1.94
			c-7.068,16.118-20.539,28.608-37.22,34.417c-0.701,0.248-1.477-0.052-1.829-0.707c-0.353-0.654-0.175-1.468,0.418-1.916
			c14.908-6.314,26.958-17.863,33.909-32.428c-6.374-0.724-12.882-0.932-19.521-0.623c-7.309,15.002-20.276,26.585-36.155,32.114
			c-0.7,0.248-1.479-0.053-1.829-0.707c-0.354-0.655-0.174-1.469,0.419-1.917c13.764-5.829,25.093-16.123,32.22-29.134
			c-14.927,1.298-30.518,5.15-46.77,11.559c-0.52,0.124-1.064-0.038-1.43-0.427c-0.365-0.387-0.494-0.941-0.341-1.451
			c0.157-0.51,0.573-0.898,1.091-1.016c11.771-6.412,23.804-10.865,36.096-13.361c-3.719-4.325-8.008-8.183-12.791-11.458
			c-0.492-0.557-0.506-1.389-0.03-1.961c0.474-0.572,1.296-0.713,1.933-0.331c5.887,3.487,11.101,7.859,15.496,12.907
			c4.577-0.743,9.187-1.218,13.833-1.425c-4.905-8.501-11.686-15.881-19.927-21.524c-0.494-0.556-0.506-1.389-0.032-1.961
			c0.477-0.572,1.296-0.713,1.935-0.331c9.76,5.782,17.674,14.001,23.076,23.697c6.789-0.019,13.653,0.528,20.594,1.642
			c-4.785-12.427-13.244-23.202-24.365-30.815c-0.492-0.557-0.505-1.39-0.03-1.961c0.475-0.572,1.295-0.712,1.934-0.331
			c13.073,7.745,22.837,19.864,27.686,34.048c0.443,0.088,0.886,0.18,1.331,0.272c6.618,1.083,12.734,1.917,18.346,2.501
			c-4.601-13.382-13.4-25.01-25.191-33.083c-0.492-0.556-0.506-1.389-0.03-1.961c0.474-0.571,1.296-0.711,1.933-0.33
			c13.62,8.068,23.646,20.884,28.268,35.836C1366.799,388.075,1378.103,387.163,1384.976,384.057"/>
		<path fill-rule="evenodd" clip-rule="evenodd" fill="#BCD1E0" d="M1275.394,306.318c2.801-1.909,4.2-2.863,4.2-2.863
			c-3.187-5.45-4.356-11.332-3.512-17.65c0.949-10.483-3.305-20.766-11.383-27.514c-8.078-6.749-18.953-9.105-29.101-6.306
			c-14.926,5.996-25.178,4.109-30.755-5.659c-4.318,17.351,1.049,35.682,14.043,47.964c12.993,12.281,31.597,16.607,48.677,11.32
			C1270.541,304.493,1273.152,304.73,1275.394,306.318"/>
		<path fill-rule="evenodd" clip-rule="evenodd" fill="#79ABC6" d="M1285.788,306.06c0.976,0.178,1.757,0.911,1.995,1.875
			c0.238,0.962-0.108,1.975-0.89,2.589c-0.778,0.613-1.845,0.713-2.724,0.255c-7.126-2.671-14.569-7.862-22.329-15.57
			c-9.253,5.029-20.189,6.071-30.265,2.829c-0.432-0.138-0.698-0.568-0.629-1.016c0.069-0.446,0.452-0.777,0.905-0.777
			c9.408,2.361,19.33,1.244,27.953-3.108c-1.437-1.497-2.884-3.078-4.341-4.745c-1.265-1.554-2.6-3.054-4-4.499
			c-9.346,5.24-20.475,6.371-30.711,3.075c-0.432-0.136-0.699-0.568-0.631-1.015s0.455-0.778,0.906-0.778
			c9.561,2.4,19.653,1.207,28.372-3.322c-2.831-2.69-5.918-5.177-9.259-7.463c-9.053,4.61-19.604,5.483-29.348,2.347
			c-0.432-0.137-0.698-0.569-0.629-1.016c0.068-0.447,0.453-0.778,0.906-0.778c8.826,2.216,18.108,1.369,26.345-2.34
			c-7.733-4.845-16.722-8.69-26.97-11.537c-0.298-0.13-0.504-0.408-0.537-0.731c-0.036-0.322,0.104-0.64,0.366-0.83
			c0.263-0.191,0.607-0.227,0.902-0.093c8.072,1.2,15.552,3.449,22.442,6.745c-0.222-3.466-0.892-6.915-2.016-10.26
			c-0.033-0.451,0.266-0.86,0.705-0.964c0.441-0.104,0.893,0.129,1.062,0.549c1.582,3.852,2.511,7.89,2.797,11.955
			c2.496,1.317,4.911,2.777,7.245,4.382c0.732-5.932,0.146-12.005-1.79-17.77c-0.035-0.451,0.265-0.86,0.705-0.964
			c0.438-0.104,0.891,0.128,1.061,0.548c2.622,6.389,3.454,13.286,2.523,19.979c3.306,2.482,6.44,5.265,9.404,8.353
			c2.233-7.794,2.074-16.133-0.538-23.912c-0.035-0.45,0.265-0.861,0.703-0.964c0.441-0.103,0.893,0.129,1.063,0.549
			c3.512,8.558,3.81,18.028,0.966,26.7c0.182,0.205,0.365,0.412,0.546,0.621c2.82,2.954,5.486,5.602,7.999,7.943
			c2.672-8.191,2.661-17.069-0.109-25.317c-0.034-0.45,0.265-0.86,0.704-0.964c0.441-0.102,0.893,0.129,1.062,0.549
			c3.661,8.916,3.832,18.822,0.594,27.783C1275.481,301.345,1281.309,305.048,1285.788,306.06"/>
		<path fill-rule="evenodd" clip-rule="evenodd" fill="#BCD1E0" d="M1361.39,328.801c-1.995,4.027-2.992,6.042-2.992,6.042
			c-7.742-3.192-15.685-3.655-23.827-1.39c-13.599,3.161-27.883-0.549-38.223-9.929c-10.342-9.379-15.424-23.234-13.601-37.076
			c5.151-20.701,0.802-33.823-13.048-39.368c22.002-8.84,47.062-5.137,65.569,9.688c18.507,14.827,27.588,38.474,23.76,61.877
			C1358.106,322.761,1358.894,326.147,1361.39,328.801"/>
		<path fill-rule="evenodd" clip-rule="evenodd" fill="#79ABC6" d="M1362.948,342.502c0.412,1.25,1.519,2.141,2.827,2.278
			c1.309,0.139,2.575-0.503,3.238-1.639c0.663-1.136,0.602-2.556-0.162-3.627c-4.811-8.872-12.988-17.702-24.529-26.488
			c4.914-13.073,4.285-27.63-1.812-40.273c-0.259-0.542-0.874-0.814-1.449-0.642c-0.574,0.173-0.938,0.739-0.855,1.333
			c4.82,11.927,5.164,25.164,1.022,37.287c-2.228-1.614-4.57-3.226-7.027-4.836c-2.272-1.378-4.484-2.856-6.64-4.433
			c5.177-13.235,4.629-28.058-1.569-40.904c-0.259-0.542-0.873-0.814-1.448-0.642c-0.574,0.171-0.938,0.738-0.856,1.333
			c4.898,12.12,5.175,25.594,0.818,37.877c-4.051-3.229-7.882-6.83-11.495-10.8c4.402-12.734,3.623-26.753-2.279-38.982
			c-0.258-0.542-0.873-0.813-1.446-0.641c-0.575,0.172-0.939,0.738-0.857,1.332c4.523,11.192,5.105,23.539,1.738,35.034
			c-7.777-9.271-14.471-20.377-20.081-33.319c-0.225-0.367-0.629-0.585-1.059-0.574c-0.432,0.013-0.821,0.255-1.024,0.635
			c-0.202,0.378-0.187,0.837,0.042,1.203c3.051,10.384,7.373,19.799,12.96,28.246c-4.592,0.344-9.246,0.095-13.845-0.771
			c-0.601,0.037-1.083,0.505-1.14,1.102c-0.055,0.598,0.333,1.147,0.914,1.294c5.352,1.373,10.825,1.858,16.218,1.49
			c2.187,3.038,4.546,5.943,7.078,8.717c-7.657,2.047-15.742,2.384-23.67,0.893c-0.598,0.037-1.081,0.505-1.137,1.102
			c-0.056,0.598,0.332,1.147,0.914,1.294c8.872,2.278,18.084,2.11,26.707-0.335c3.862,3.891,8.092,7.501,12.688,10.831
			c-9.832,4.355-20.814,5.67-31.51,3.659c-0.598,0.036-1.082,0.504-1.137,1.101c-0.056,0.598,0.332,1.148,0.914,1.294
			c11.885,3.051,24.379,1.715,35.251-3.606c0.303,0.202,0.608,0.404,0.915,0.604c4.395,3.164,8.359,6.184,11.896,9.057
			c-10.271,5.007-21.937,6.613-33.276,4.48c-0.6,0.036-1.081,0.505-1.139,1.102c-0.055,0.597,0.332,1.147,0.914,1.294
			c12.383,3.179,25.426,1.595,36.605-4.295C1354.873,329.826,1360.802,336.803,1362.948,342.502"/>
		<path fill-rule="evenodd" clip-rule="evenodd" fill="#B7CEDE" d="M784.856,961.683c37.315,35.83,58.066,49.58,62.256,41.249
			c0,0-6.635-330.444-19.903-991.335c-14.134,0.31-28.258,1.005-42.353,2.087C784.935,364.173,784.935,680.173,784.856,961.683"/>
		<path fill-rule="evenodd" clip-rule="evenodd" fill="#D7E2EB" d="M816.924,961.683c43.08,24.425,64.621,36.638,64.621,36.638
			c-5.021-298.109-5.021-626.779,0-986.009c-21.525-1.038-43.084-1.179-64.621-0.422
			C816.989,354.316,816.989,670.915,816.924,961.683"/>
		<path fill-rule="evenodd" clip-rule="evenodd" fill="#AEC8DA" d="M237.369,950.614c39.839,11.795,59.758,17.692,59.758,17.692
			s-0.274-243.224-0.822-729.67c-10.387,10.404-20.475,21.102-30.25,32.083C246.932,723.982,237.369,950.614,237.369,950.614"/>
		<path fill-rule="evenodd" clip-rule="evenodd" fill="#DEE7EE" d="M277.851,998.321c-76.08,12.248-114.12,18.372-114.12,18.372
			s-9.841-179.84-29.526-539.521c35.047-80.777,83.627-154.976,143.646-219.403C279.827,533.75,279.827,780.6,277.851,998.321"/>
		<path fill-rule="evenodd" clip-rule="evenodd" fill="#FFFFFF" d="M194.032,983.422c-24.45,4.325-36.674,6.486-36.674,6.486
			s-3.149-180.854-9.447-542.566c13.738-28.326,29.198-55.784,46.293-82.22C194.09,777.323,194.032,983.422,194.032,983.422"/>
		<path fill-rule="evenodd" clip-rule="evenodd" fill="#CEDCE7" d="M88.017,950.614l37.023,42.273
			c6.618-6.313,16.53-8.399,25.337-4.788c4.979,0.501,9.504,2.544,13.09,5.643c1.782,0.889,3.437,1.997,4.929,3.287
			c2.085,1.041,3.996,2.381,5.676,3.962c0.257-164.215,0.23-365.133-0.085-602.799C77.475,565.18,46.814,762.194,88.017,950.614"/>
		<path fill-rule="evenodd" clip-rule="evenodd" fill="#C0D3E1" d="M150.012,961.683c16.086-7.38,24.127-11.069,24.127-11.069
			c0.132-239.797,0.08-423.937-0.152-552.422c-7.964,13.779-15.5,27.801-22.601,42.045
			C150.47,787.869,150.012,961.683,150.012,961.683"/>
		<path fill-rule="evenodd" clip-rule="evenodd" fill="#AEC8DA" d="M1402.459,709.333
			c-34.653,128.287-51.979,192.432-51.979,192.432s0.279-233.698,0.836-701.094c12.362,10.713,24.379,21.816,36.035,33.293
			C1397.423,550.875,1402.459,709.333,1402.459,709.333"/>
		<path fill-rule="evenodd" clip-rule="evenodd" fill="#CEDCE7" d="M1495.091,961.683c45.618,9.306,87.116,5.615,105.252-11.069
			c39.432-180.3,13.103-368.758-74.233-531.347C1505.431,780.878,1495.091,961.683,1495.091,961.683"/>
		<path fill-rule="evenodd" clip-rule="evenodd" fill="#C0D3E1" d="M1531.144,966.399c21.176-10.523,31.765-15.785,31.765-15.785
			c-0.645-112.214-0.645-263.028,0-452.441c-5.29-13.338-11.355-27.332-18.197-41.982c-1.396-2.99-8.111,1.336-9.572-1.709
			c-2.569-5.354-3.18-5.777-5.948-11.301C1528.342,800.236,1531.144,966.399,1531.144,966.399"/>
		<path fill-rule="evenodd" clip-rule="evenodd" fill="#DEE7EE" d="M1384.192,971.335c94.874,4.567,142.312,6.85,142.312,6.85
			s-0.132-186.306-0.395-558.917c-39.145-72.961-89.758-139.159-149.904-196.06C1381.53,721.959,1384.192,971.335,1384.192,971.335"
			/>
		<path fill-rule="evenodd" clip-rule="evenodd" fill="#FFFFFF" d="M1516.335,980.577c20.183-5.197,30.273-7.796,30.273-7.796
			s-0.657-172.236-1.975-516.711c-10.186-23.939-22.344-44.749-31.56-60.12C1515.249,785.702,1516.335,980.577,1516.335,980.577"/>
		<rect x="1417.572" y="379.186" fill-rule="evenodd" clip-rule="evenodd" fill="#CEDCE7" width="42.204" height="72.869"/>
		<rect x="1408.483" y="371.273" fill-rule="evenodd" clip-rule="evenodd" fill="#FFFFFF" width="42.204" height="72.869"/>
		<rect x="1422.346" y="394.248" fill-rule="evenodd" clip-rule="evenodd" fill="#C0D3E1" width="14.479" height="26.918"/>
		<path fill-rule="evenodd" clip-rule="evenodd" fill="#A0C0D5" d="M1308.604,668.429l136.847,23.492
			c6.564,1.126,10.765,7.376,9.339,13.889l-56.069,255.734c-1.427,6.512-7.966,10.918-14.528,9.791l-136.847-23.492
			c-6.563-1.126-10.766-7.376-9.339-13.889l56.067-255.734C1295.501,671.708,1302.041,667.302,1308.604,668.429"/>
		<rect x="612.798" y="905.985" fill-rule="evenodd" clip-rule="evenodd" fill="#8EB6CE" width="69.71" height="68.646"/>
		<path fill-rule="evenodd" clip-rule="evenodd" fill="#98BBD2" d="M638.235,814.806c125.428,0,236.731,8.61,306.373,21.908h75.615
			v32.501c0,30.05-171.021,54.41-381.988,54.41s-381.987-24.36-381.987-54.41v-32.501h75.614
			C401.505,823.417,512.808,814.806,638.235,814.806"/>
		<path fill-rule="evenodd" clip-rule="evenodd" fill="#ABC6D9" d="M638.235,782.305c210.966,0,381.988,24.359,381.988,54.409
			s-171.021,54.411-381.988,54.411s-381.987-24.361-381.987-54.411S427.269,782.305,638.235,782.305"/>
		<path fill-rule="evenodd" clip-rule="evenodd" fill="#A0C0D5" d="M513.485,823.079c53.06,0,96.073,7.582,96.073,16.936
			s-43.013,16.937-96.073,16.937s-96.073-7.583-96.073-16.937S460.425,823.079,513.485,823.079"/>
		<path fill-rule="evenodd" clip-rule="evenodd" fill="#79ABC6" d="M505.758,749.605c6.604,0.071,9.906,0.107,9.906,0.107
			c1.731-61.47,45.698-113.593,105.995-125.656c1.334-0.551,2.1-1.956,1.842-3.375c-0.26-1.418-1.475-2.462-2.916-2.504
			C555.669,628.646,507.419,683.873,505.758,749.605"/>
		<path fill-rule="evenodd" clip-rule="evenodd" fill="#79ABC6" d="M502.054,756.528c-3.89,0.043-5.835,0.063-5.835,0.063
			c-1.021-36.211-26.92-66.916-62.441-74.024c-0.787-0.323-1.238-1.151-1.086-1.987c0.153-0.835,0.87-1.449,1.718-1.476
			C472.65,685.272,501.076,717.805,502.054,756.528"/>
		<path fill-rule="evenodd" clip-rule="evenodd" fill="#A0C0D5" d="M614.865,579.732c3.902,0.918,4.964,10.58,2.375,21.577
			c-2.59,10.998-7.852,19.169-11.754,18.251c-3.9-0.919-4.963-10.579-2.373-21.578C605.702,586.984,610.965,578.813,614.865,579.732
			"/>
		<path fill-rule="evenodd" clip-rule="evenodd" fill="#A0C0D5" d="M611.676,628.129c2.002-3.472,11.561-1.712,21.349,3.932
			s16.1,13.033,14.099,16.505c-2.002,3.474-11.561,1.713-21.349-3.932C615.986,638.992,609.674,631.602,611.676,628.129"/>
		<path fill-rule="evenodd" clip-rule="evenodd" fill="#A0C0D5" d="M596.569,585.015c3.901,0.918,4.964,10.579,2.375,21.577
			c-2.59,10.998-7.852,19.169-11.754,18.25c-3.901-0.919-4.964-10.579-2.374-21.577
			C587.406,592.267,592.668,584.096,596.569,585.015"/>
		<path fill-rule="evenodd" clip-rule="evenodd" fill="#A0C0D5" d="M595.661,634.418c2.409-3.202,11.683-0.294,20.712,6.498
			c9.03,6.791,14.398,14.893,11.989,18.096c-2.409,3.203-11.682,0.294-20.713-6.497
			C598.619,645.723,593.252,637.622,595.661,634.418"/>
		<path fill-rule="evenodd" clip-rule="evenodd" fill="#A0C0D5" d="M577.134,644.73c2.409-3.203,11.682-0.296,20.712,6.496
			c9.03,6.791,14.398,14.893,11.989,18.097c-2.409,3.203-11.683,0.294-20.713-6.497C580.092,656.036,574.725,647.932,577.134,644.73
			"/>
		<path fill-rule="evenodd" clip-rule="evenodd" fill="#A0C0D5" d="M560.796,655.373c2.673-3.555,12.966-0.325,22.989,7.212
			c10.022,7.537,15.979,16.53,13.305,20.085c-2.673,3.555-12.965,0.327-22.988-7.211
			C564.08,667.921,558.123,658.928,560.796,655.373"/>
		<path fill-rule="evenodd" clip-rule="evenodd" fill="#A0C0D5" d="M548,670.322c2.833-3.769,13.741-0.347,24.363,7.641
			c10.621,7.988,16.935,17.519,14.101,21.286c-2.833,3.768-13.741,0.346-24.362-7.642C551.479,683.619,545.167,674.089,548,670.322"
			/>
		<path fill-rule="evenodd" clip-rule="evenodd" fill="#A0C0D5" d="M535.417,687.781c3.086-4.104,14.967-0.378,26.537,8.323
			c11.569,8.701,18.446,19.083,15.359,23.187c-3.085,4.104-14.967,0.377-26.536-8.324
			C539.207,702.265,532.33,691.884,535.417,687.781"/>
		<path fill-rule="evenodd" clip-rule="evenodd" fill="#A0C0D5" d="M575.504,591.845c3.972,0.532,5.977,10.042,4.477,21.24
			c-1.5,11.199-5.937,19.848-9.909,19.314c-3.973-0.532-5.977-10.041-4.478-21.24C567.095,599.96,571.531,591.313,575.504,591.845"
			/>
		<path fill-rule="evenodd" clip-rule="evenodd" fill="#A0C0D5" d="M555.534,603.899c4.005,0.158,6.889,9.439,6.442,20.729
			c-0.446,11.289-4.054,20.314-8.06,20.155c-4.004-0.157-6.888-9.438-6.442-20.729C547.921,612.765,551.53,603.74,555.534,603.899"
			/>
		<path fill-rule="evenodd" clip-rule="evenodd" fill="#A0C0D5" d="M534.534,613.234c4.406-0.617,9.385,8.953,11.122,21.371
			c1.737,12.42-0.425,22.988-4.831,23.604c-4.405,0.615-9.385-8.952-11.123-21.372C527.965,624.417,530.128,613.85,534.534,613.234"
			/>
		<path fill-rule="evenodd" clip-rule="evenodd" fill="#A0C0D5" d="M510.065,626.816c4.304-1.925,12.188,6.354,17.61,18.487
			c5.422,12.134,6.328,23.529,2.024,25.452c-4.304,1.923-12.188-6.354-17.61-18.487
			C506.667,640.133,505.761,628.739,510.065,626.816"/>
		<path fill-rule="evenodd" clip-rule="evenodd" fill="#A0C0D5" d="M488.248,644.949c4.083-3.111,14.508,3.697,23.283,15.211
			s12.578,23.371,8.495,26.483c-4.084,3.113-14.509-3.698-23.285-15.211C487.966,659.919,484.163,648.062,488.248,644.949"/>
		<path fill-rule="evenodd" clip-rule="evenodd" fill="#A0C0D5" d="M437.78,656.457c-2.298,0.542-2.925,6.232-1.399,12.711
			c1.525,6.479,4.625,11.293,6.923,10.752c2.298-0.542,2.925-6.232,1.399-12.711C443.177,660.729,440.078,655.916,437.78,656.457"/>
		<path fill-rule="evenodd" clip-rule="evenodd" fill="#A0C0D5" d="M439.658,684.967c-1.179-2.045-6.81-1.008-12.577,2.316
			c-5.766,3.324-9.485,7.678-8.305,9.723c1.179,2.047,6.809,1.009,12.576-2.315C437.118,691.367,440.837,687.013,439.658,684.967"/>
		<path fill-rule="evenodd" clip-rule="evenodd" fill="#A0C0D5" d="M448.557,659.569c-2.297,0.541-2.924,6.231-1.398,12.711
			c1.525,6.478,4.625,11.293,6.923,10.751c2.299-0.541,2.925-6.232,1.399-12.711C453.956,663.841,450.854,659.028,448.557,659.569"
			/>
		<path fill-rule="evenodd" clip-rule="evenodd" fill="#A0C0D5" d="M449.092,688.672c-1.418-1.887-6.882-0.173-12.201,3.827
			c-5.32,4.001-8.482,8.774-7.063,10.661s6.883,0.174,12.202-3.827C447.349,695.333,450.511,690.559,449.092,688.672"/>
		<path fill-rule="evenodd" clip-rule="evenodd" fill="#A0C0D5" d="M460.006,694.747c-1.419-1.888-6.882-0.174-12.202,3.827
			c-5.319,4.001-8.481,8.773-7.062,10.661c1.419,1.886,6.882,0.173,12.202-3.827C458.263,701.407,461.425,696.633,460.006,694.747"
			/>
		<path fill-rule="evenodd" clip-rule="evenodd" fill="#A0C0D5" d="M469.631,701.017c-1.575-2.095-7.638-0.192-13.542,4.247
			c-5.905,4.441-9.415,9.738-7.839,11.833c1.575,2.095,7.638,0.192,13.542-4.248C467.696,708.409,471.205,703.111,469.631,701.017"
			/>
		<path fill-rule="evenodd" clip-rule="evenodd" fill="#A0C0D5" d="M477.17,709.823c-1.67-2.22-8.095-0.204-14.353,4.502
			c-6.257,4.705-9.977,10.32-8.307,12.539c1.669,2.22,8.095,0.204,14.351-4.502C475.12,717.656,478.839,712.042,477.17,709.823"/>
		<path fill-rule="evenodd" clip-rule="evenodd" fill="#A0C0D5" d="M484.582,720.108c-1.818-2.417-8.817-0.222-15.633,4.903
			c-6.816,5.126-10.867,11.242-9.049,13.658c1.818,2.419,8.818,0.224,15.633-4.903C482.349,728.641,486.4,722.526,484.582,720.108"
			/>
		<path fill-rule="evenodd" clip-rule="evenodd" fill="#A0C0D5" d="M460.967,663.592c-2.34,0.313-3.521,5.916-2.637,12.513
			c0.883,6.598,3.497,11.691,5.837,11.379c2.34-0.313,3.521-5.916,2.637-12.514C465.919,668.373,463.307,663.279,460.967,663.592"/>
		<path fill-rule="evenodd" clip-rule="evenodd" fill="#A0C0D5" d="M472.731,670.694c-2.359,0.093-4.058,5.561-3.795,12.211
			c0.263,6.65,2.388,11.968,4.748,11.874c2.359-0.093,4.059-5.561,3.796-12.212C477.216,675.916,475.09,670.6,472.731,670.694"/>
		<path fill-rule="evenodd" clip-rule="evenodd" fill="#A0C0D5" d="M485.103,676.193c-2.596-0.363-5.529,5.273-6.552,12.59
			s0.25,13.542,2.846,13.905c2.596,0.362,5.528-5.274,6.552-12.591C488.971,682.782,487.697,676.555,485.103,676.193"/>
		<path fill-rule="evenodd" clip-rule="evenodd" fill="#A0C0D5" d="M499.517,684.194c-2.535-1.134-7.18,3.743-10.374,10.891
			c-3.194,7.147-3.728,13.861-1.192,14.994c2.535,1.133,7.18-3.743,10.374-10.892C501.519,692.04,502.052,685.327,499.517,684.194"
			/>
		<path fill-rule="evenodd" clip-rule="evenodd" fill="#A0C0D5" d="M512.369,694.876c-2.405-1.834-8.547,2.178-13.716,8.96
			c-5.17,6.783-7.41,13.769-5.005,15.603c2.406,1.834,8.548-2.179,13.717-8.961C512.534,703.695,514.775,696.709,512.369,694.876"/>
		<path fill-rule="evenodd" clip-rule="evenodd" fill="#EDF1F5" d="M463.871,747.544h44.561h44.58
			c-2.104,15.41-4.2,30.831-6.294,46.232c-2.095,15.402-4.19,30.812-6.275,46.215h-32.019h-31.993
			c-2.095-15.402-4.19-30.812-6.285-46.215C468.052,778.376,465.956,762.955,463.871,747.544"/>
		<path fill-rule="evenodd" clip-rule="evenodd" fill="#DCE6ED" d="M510.458,752.076h17.641h17.649
			c-1.812,13.9-3.618,27.811-5.426,41.7c-1.806,13.893-3.618,27.792-5.423,41.684H522.41h-12.478
			c0.083-13.892,0.174-27.792,0.261-41.684C510.28,779.886,510.367,765.976,510.458,752.076"/>
		<path fill-rule="evenodd" clip-rule="evenodd" fill="#D3E0E9" d="M640.01,851.689c107.37,10.378,161.056,15.566,161.056,15.566
			v-18.739C714.043,826.187,660.357,821,640.01,832.95V851.689"/>
		<path fill-rule="evenodd" clip-rule="evenodd" fill="#C0D3E1" d="M801.065,867.255c38.742-31.355,58.113-47.035,58.113-47.035
			v-18.74c-29.003,15.836-48.373,31.516-58.113,47.036V867.255"/>
		<path fill-rule="evenodd" clip-rule="evenodd" fill="#FFFFFF" d="M640.009,832.95c105.57,9.526,161.057,15.566,161.057,15.566
			s19.371-15.679,58.113-47.036c0,0-49.073-3.905-147.221-11.717C673.584,811.911,640.009,832.95,640.009,832.95"/>
		<path fill-rule="evenodd" clip-rule="evenodd" fill="#BCD1E0" d="M1058.349,267.61c0.306-2.032,0.458-3.048,0.458-3.048
			c3.815,0.308,7.339-0.601,10.567-2.725c5.479-3.278,12.216-3.658,18.03-1.02c5.812,2.639,9.962,7.96,11.102,14.242
			c0.652,9.732,4.38,14.837,11.185,15.315c-8.344,6.924-19.773,8.815-29.902,4.947s-17.388-12.895-18.993-23.619
			C1060.62,269.781,1059.806,268.417,1058.349,267.61"/>
		<path fill-rule="evenodd" clip-rule="evenodd" fill="#79ABC6" d="M1055.754,261.863c-0.354-0.486-0.96-0.72-1.549-0.598
			c-0.59,0.123-1.053,0.58-1.182,1.168c-0.13,0.587,0.096,1.196,0.578,1.556c3.334,3.19,8.13,5.891,14.381,8.104
			c-0.311,6.378,1.996,12.628,6.419,17.28c0.188,0.2,0.494,0.233,0.72,0.077c0.228-0.155,0.307-0.453,0.188-0.7
			c-3.766-4.518-5.766-10.234-5.658-16.091c1.197,0.392,2.441,0.766,3.736,1.124c1.181,0.282,2.352,0.616,3.511,1.001
			c-0.403,6.487,1.906,12.864,6.4,17.59c0.188,0.201,0.494,0.233,0.721,0.078c0.226-0.156,0.304-0.453,0.185-0.7
			c-3.825-4.592-5.828-10.421-5.648-16.377c2.215,0.839,4.386,1.872,6.513,3.095c-0.136,6.16,2.164,12.154,6.441,16.653
			c0.188,0.2,0.494,0.233,0.72,0.078c0.227-0.156,0.305-0.453,0.186-0.7c-3.532-4.241-5.512-9.535-5.652-15.011
			c4.682,2.951,9.147,6.849,13.4,11.701c0.149,0.128,0.355,0.167,0.541,0.101c0.187-0.066,0.321-0.225,0.357-0.419
			c0.035-0.193-0.036-0.391-0.186-0.518c-2.78-4.094-5.978-7.59-9.592-10.487c1.951-0.791,4.013-1.333,6.137-1.599
			c0.255-0.1,0.399-0.371,0.342-0.639c-0.061-0.268-0.307-0.453-0.579-0.435c-2.522,0.149-4.972,0.704-7.271,1.618
			c-1.375-1.017-2.809-1.953-4.299-2.807c3.047-1.961,6.521-3.238,10.181-3.696c0.256-0.1,0.399-0.372,0.342-0.639
			c-0.061-0.268-0.306-0.453-0.579-0.436c-4.182,0.249-8.169,1.609-11.581,3.878c-2.226-1.153-4.573-2.134-7.038-2.942
			c3.671-3.269,8.271-5.378,13.207-5.996c0.255-0.1,0.4-0.371,0.341-0.639c-0.059-0.268-0.305-0.453-0.579-0.436
			c-5.6,0.333-10.853,2.661-14.842,6.497c-0.162-0.045-0.322-0.09-0.484-0.135c-2.354-0.763-4.505-1.523-6.444-2.28
			c3.771-3.616,8.627-5.945,13.86-6.602c0.257-0.101,0.402-0.372,0.343-0.64c-0.061-0.267-0.307-0.453-0.578-0.435
			c-5.835,0.346-11.293,2.859-15.337,6.986C1061.042,266.254,1057.484,264.044,1055.754,261.863"/>
		<path fill-rule="evenodd" clip-rule="evenodd" fill="#B5CDDD" d="M1265.611,685.84l136.848,23.492
			c6.562,1.127,10.766,7.377,9.338,13.889l-56.068,255.734c-1.428,6.513-7.966,10.918-14.528,9.791l-136.847-23.491
			c-6.563-1.128-10.766-7.377-9.34-13.889l56.068-255.734C1252.509,689.12,1259.049,684.713,1265.611,685.84"/>
		<path fill-rule="evenodd" clip-rule="evenodd" fill="#C7D8E4" d="M989.329,664.28c17.777,37.242,2.438,77.684-28.541,75.873
			C943.275,725.45,926.594,662.576,989.329,664.28"/>
		<path fill-rule="evenodd" clip-rule="evenodd" fill="#FFFFFF" d="M968.565,756.292c17.094-6.092,31.93-17.24,42.534-31.967
			c-4.097-6.501-8.995-12.461-14.582-17.737c-9.259,14.333-22.791,25.393-38.682,31.608
			C959.772,745.063,963.471,751.3,968.565,756.292"/>
		<path fill-rule="evenodd" clip-rule="evenodd" fill="#D7E2EB" d="M961.217,753.809c21.988-4.638,35.602-19.447,48.995-37.492
			c0,0,22.949,27.988,71.341,82.12c6.479,7.443,11.838,5.976,13.582-2.561l19.715-97.147c4.364-23.687,26.368-39.916,50.288-37.09
			c23.918,2.827,43.395,24.347,40.255,47.791c-3.893,28.982-15.34,80.84-43.027,153.361c-7.09,18.915-23.42,29.238-40.77,35.272
			c-19.87,6.911-49.767-8.92-77.291-39.13C1010.863,823.055,987.112,789.54,961.217,753.809"/>
		<path fill-rule="evenodd" clip-rule="evenodd" fill="#C5D7E4" d="M1084.243,810.846c1.062,46.46,1.592,69.689,1.592,69.689
			c-24.587-12.25-61.289-52.875-110.104-121.877c8.42,8.049,13.374,11.602,21.927,9.492c39.179,58.703,69.734,60.414,71.63,26.784
			C1079.258,805.543,1084.243,810.846,1084.243,810.846"/>
		<path fill-rule="evenodd" clip-rule="evenodd" fill="#98BBD2" d="M956.487,636.152h47.371h47.392
			c-1.886,18.617-3.757,37.241-5.629,55.847c-1.871,18.604-3.734,37.22-5.602,55.824h-36.171h-36.142
			c-1.877-18.604-3.739-37.221-5.61-55.824C960.224,673.393,958.354,654.769,956.487,636.152"/>
		<rect x="950.492" y="625.645" fill-rule="evenodd" clip-rule="evenodd" fill="#B5CDDD" width="106.714" height="22.199"/>
		<path fill-rule="evenodd" clip-rule="evenodd" fill="#79ABC6" d="M1072.495,979.451c145.676,3.369,234.556,0.482,234.556,0.482
			c-13.832-65.147-5.965-188.521,18.541-357.418c-9.118-16.258-25.718-25.913-43.358-25.222
			c-88.673,23.33-133.01,34.996-133.01,34.996c-48.204,30.879-67.485,63.731-69.587,111.212
			C1080.173,822.462,1086.23,921.738,1072.495,979.451"/>
		<path fill-rule="evenodd" clip-rule="evenodd" fill="#E9EEF3" d="M1166.31,696.877c31.306-2.85,73.302-38.64,115.925-99.587
			c-0.114-5.59-3.149-10.713-7.996-13.5c-4.848-2.788-10.802-2.832-15.691-0.118c-72.882,30.771-109.322,46.156-109.322,46.156
			C1125.08,672.818,1138.542,698.992,1166.31,696.877"/>
		<path fill-rule="evenodd" clip-rule="evenodd" fill="#BED2E1" d="M1151.758,623.388c-28.526,67.984,26.687,64.102,106.79-39.715
			c-8.567-20.201-20.095-41.494-18.521-74.38c1.005-11.144-5.692-21.546-16.253-25.241c-10.561-3.696-22.283,0.26-28.445,9.6
			c-6.16,9.34-5.185,21.673,2.369,29.927c-25.96,43.667-47.859,69.687-47.859,69.687
			C1155.771,611.87,1154.077,618.061,1151.758,623.388"/>
		<path fill-rule="evenodd" clip-rule="evenodd" fill="#A7C4D8" d="M1154.075,587.996c42.491-102.884,69.776-126.838,81.854-71.862
			c-1.659,12.911-0.726,27.414,2.796,43.506c-28.232,61.576-86.752,93.79-79.862,63.084
			C1159.889,612,1158.294,600.425,1154.075,587.996"/>
		<path fill-rule="evenodd" clip-rule="evenodd" fill="#C7D8E4" d="M1195.178,532.417c-52.012,71.313-87.487,88.708-106.426,52.185
			c-22.151-26.796-32.957-48.244-32.414-64.343c-0.133-9.896-3.705-19.596-10.72-29.101c-8.864-10.449-8.924-33.139-3.817-56.563
			c9.4-24.498,31.072-42.185,56.96-46.482c25.886-4.297,52.109,5.438,68.923,25.586
			C1196.269,464.962,1205.435,504.537,1195.178,532.417"/>
		<path fill-rule="evenodd" clip-rule="evenodd" fill="#ABC6D9" d="M1195.028,536.732c-24.441,40.969-41.701,45.817-51.78,14.545
			c26.926-17.3,27.348-53.98,6.916-112.044c-8.152-23.36-20.699-36.773-34.549-40.969c-3.629-18.904,8.962-19.595,37.77-2.075
			C1187.49,434.664,1201.371,481.51,1195.028,536.732"/>
		<path fill-rule="evenodd" clip-rule="evenodd" fill="#68A3C1" d="M1186.132,475.067c5.135,20.815,3.521,37.601-4.838,50.355
			c-6.57,9.464-14.722,17.836-24.45,25.114c-5.837,4.352-9.471,2.724-19.988-2.088c-9.564-4.2-12.323-2.403-6.741,1.637
			c8.007,6.27,11.771,16.536,9.708,26.494c-2.061,9.959,0.442,11.204-19.426,20.465c-15.232,7.099-21.14,1.515-26.963-8.318
			c-5.264-8.628-6.244-8.013-2.942,1.85c5.224,15.436,16.107,22.158,32.651,20.163c21.097-2.515,50.239-22.602,87.425-60.261
			c8.927-8.634,9.347-20.985,3.719-33.643c-6.233-13.984-11.656-28.119-16.267-42.405
			C1190.095,474.855,1186.132,475.067,1186.132,475.067"/>
		<path fill-rule="evenodd" clip-rule="evenodd" fill="#68A3C1" d="M1250.539,528.276c0.033,4.058-0.72,7.922-2.256,11.592
			c-1.149-7.465-3.811-14.617-7.821-21.017c-0.56,3.885,0.081,7.85,1.833,11.363c-6.41-4.338-10.709-11.163-11.854-18.818
			c-1.566,3.91-1.629,8.262-0.172,12.214c-6.601-6.668-9.598-16.102-8.054-25.358c-6.571-18.943-14.691-28.235-24.363-27.877
			c-0.454,3.005,2.894,5.613-5.771,5.905c-5.79,0.195-4.27,2.433-5.713-0.24c-1.683-5.716-7.124-17.654-9.138-29.088
			c-0.882-4.501-2.414-7.271-4.595-8.311c-8.323-4.687-12.533-11.068-12.633-19.142c-1.922-13.744-8.722-19.866-20.402-18.363
			c-6.235,0.903-12.556-0.932-17.339-5.034c-6.48,3.13-13.972,3.419-20.674,0.797c-8.283,14.396-23.174,23.741-39.74,24.939
			c-4.889,9.086-13.538,15.589-24.579,15.142c-10.342-0.566-19.704-6.301-24.903-15.258c-5.201-8.959-5.539-19.932-0.902-29.194
			c-1.542,6.256-0.496,12.87,2.9,18.344c3.397,5.475,8.859,9.348,15.149,10.743c-4.809-6.699-6.681-15.071-5.183-23.181
			c1.497-8.112,6.233-15.262,13.119-19.803c-1.14,2.2-1.312,4.776-0.474,7.109c0.836,2.333,2.609,4.211,4.89,5.182
			c-2.41-14.729,7.194-28.749,21.798-31.822c2.202-22.437,21.965-38.979,44.438-37.195c-17.175,3.476-29.984,17.887-31.423,35.351
			c20.753-33.096,63.914-43.937,97.843-24.576c13.562-0.872,26.662,5.1,34.898,15.91c1.493-11.208-3.463-22.3-12.81-28.665
			c13.397,5.83,21.702,19.43,20.772,34.009c13.902-12.832,34.968-13.951,50.152-2.665c-13.637-5.014-28.946-1.544-39.088,8.86
			c10.543-4.383,22.68-2.163,30.989,5.668c-7.342-3.052-15.685-2.522-22.583,1.431c19.185,8.68,28.169,30.897,20.413,50.474
			c0.605,15.779-2.575,31.472-9.272,45.771c-1.876,4.144-1.71,9.569-0.46,18.189
			C1248.854,493.295,1249.856,508.834,1250.539,528.276"/>
		<path fill-rule="evenodd" clip-rule="evenodd" fill="#C7D8E4" d="M1196.128,450.701c-0.182,8.297,0.455,22.219,1.907,41.765
			c1.105,15.338,45.427,11.34,48.229-33.81c0.509-8.92-4.049-18.118-11.878-23.966c-7.829-5.847-17.674-7.41-25.655-4.07
			C1200.752,433.958,1195.915,441.664,1196.128,450.701"/>
		<path fill-rule="evenodd" clip-rule="evenodd" fill="#A0C0D5" d="M1202.661,453.176c-0.098,4.442,0.243,11.896,1.021,22.361
			c0.592,8.211,24.322,6.071,25.822-18.102c0.271-4.776-2.168-9.7-6.36-12.83c-4.191-3.132-9.462-3.969-13.734-2.18
			C1205.137,444.213,1202.547,448.339,1202.661,453.176"/>
		<path fill-rule="evenodd" clip-rule="evenodd" fill="#68A3C1" d="M1142.062,436.312c1.175,0.434,1.968,0.995,2.315,2.042
			c0.35,1.049,0.109,2.203-0.629,3.024c-0.738,0.822-1.861,1.184-2.939,0.948c-16.988-3.552-36.01,3.118-57.062,20.01
			c-2.744,2.229-6.828,1.213-8.984-1.529c-2.156-2.743-2.326-6.58,0.632-9.091C1098.757,434.429,1120.98,429.294,1142.062,436.312"
			/>
		<path fill-rule="evenodd" clip-rule="evenodd" fill="#68A3C1" d="M1035.736,478.702c-1.521,2.306-1.978,4.187-0.592,6.062
			c1.384,1.874,4.168,2.702,5.967,1.216c4.271-3.515,9.285-6.013,14.665-7.303c2.902-0.632,5.202-2.843,5.946-5.72
			c0.745-2.875-0.192-5.925-2.425-7.886c-2.232-1.96-5.379-2.496-8.135-1.386C1044.766,467.215,1039.438,472.402,1035.736,478.702"
			/>
		<path fill-rule="evenodd" clip-rule="evenodd" fill="#A4C2D6" d="M1131.071,451.807c13.534,0,24.506,10.973,24.506,24.507
			c0,13.534-10.972,24.505-24.506,24.505c-13.535,0-24.507-10.971-24.507-24.505C1106.564,462.78,1117.536,451.807,1131.071,451.807
			"/>
		<path fill-rule="evenodd" clip-rule="evenodd" fill="#FFFFFF" d="M1119.752,447.987c13.533,0,24.507,10.972,24.507,24.506
			c0,13.535-10.974,24.507-24.507,24.507c-13.534,0-24.506-10.972-24.506-24.507
			C1095.246,458.959,1106.218,447.987,1119.752,447.987"/>
		<path fill-rule="evenodd" clip-rule="evenodd" fill="#A2C1D6" d="M1117.26,461.761c9.006,0,16.308,7.302,16.308,16.309
			c0,9.005-7.302,16.308-16.308,16.308c-9.008,0-16.31-7.303-16.31-16.308C1100.95,469.063,1108.252,461.761,1117.26,461.761"/>
		<path fill-rule="evenodd" clip-rule="evenodd" fill="#4796B8" d="M1117.26,467.642c5.759,0,10.428,4.668,10.428,10.427
			c0,5.759-4.669,10.427-10.428,10.427c-5.76,0-10.429-4.668-10.429-10.427C1106.831,472.31,1111.5,467.642,1117.26,467.642"/>
		<path fill-rule="evenodd" clip-rule="evenodd" fill="#FFFFFF" d="M1108.598,483.115c2.678,0,4.85,2.171,4.85,4.85
			c0,2.677-2.172,4.848-4.85,4.848c-2.679,0-4.85-2.171-4.85-4.848C1103.748,485.286,1105.919,483.115,1108.598,483.115"/>
		<path fill-rule="evenodd" clip-rule="evenodd" fill="#FFFFFF" d="M1063.332,477.637c10.958,0,19.843,8.883,19.843,19.841
			c0,10.959-8.885,19.843-19.843,19.843c-10.959,0-19.842-8.884-19.842-19.843C1043.49,486.52,1052.373,477.637,1063.332,477.637"/>
		<path fill-rule="evenodd" clip-rule="evenodd" fill="#A2C1D6" d="M1061.313,488.789c7.293,0,13.205,5.912,13.205,13.204
			c0,7.294-5.912,13.205-13.205,13.205c-7.292,0-13.204-5.911-13.204-13.205C1048.109,494.701,1054.021,488.789,1061.313,488.789"/>
		<path fill-rule="evenodd" clip-rule="evenodd" fill="#4796B8" d="M1061.313,493.551c4.664,0,8.442,3.779,8.442,8.442
			c0,4.663-3.778,8.444-8.442,8.444c-4.662,0-8.442-3.781-8.442-8.444C1052.871,497.33,1056.651,493.551,1061.313,493.551"/>
		<path fill-rule="evenodd" clip-rule="evenodd" fill="#FFFFFF" d="M1054.301,506.079c2.168,0,3.927,1.758,3.927,3.926
			c0,2.169-1.759,3.927-3.927,3.927c-2.169,0-3.926-1.758-3.926-3.927C1050.375,507.837,1052.132,506.079,1054.301,506.079"/>
		<path fill-rule="evenodd" clip-rule="evenodd" fill="#9BBDD3" d="M1088.316,475.577c7.259,9.412,12.043,18.685,14.352,27.816
			c2.924-1.311,6.274-1.3,9.19,0.031c2.918,1.33,5.121,3.851,6.049,6.92c2.18,7.023-5.447,15.546-22.886,25.571
			c-5.379,2.944-12.049,2.047-16.456-2.217c-4.409-4.262-5.53-10.897-2.768-16.372c6.693-14.95,7.802-27.4,3.326-37.355
			c-0.872-1.864,0.863-4.582,2.973-5.592C1084.209,473.371,1086.884,473.752,1088.316,475.577"/>
		<path fill-rule="evenodd" clip-rule="evenodd" fill="#74A8C5" d="M1099.4,553.823c4.982,0,9.021,4.04,9.021,9.022
			s-4.039,9.021-9.021,9.021s-9.021-4.039-9.021-9.021S1094.418,553.823,1099.4,553.823"/>
		<path fill-rule="evenodd" clip-rule="evenodd" fill="#6FA6C3" d="M1210.492,483.245c4.311,0,7.807,3.495,7.807,7.807
			c0,4.311-3.496,7.807-7.807,7.807c-4.312,0-7.808-3.496-7.808-7.807C1202.685,486.74,1206.18,483.245,1210.492,483.245"/>
		<path fill-rule="evenodd" clip-rule="evenodd" fill="#68A3C1" d="M1127.472,543.058c-4.354-2.418-12.157-2-23.412,1.256
			c-2.131,0.087-4.044-1.301-4.623-3.354c-0.578-2.053,0.327-4.234,2.188-5.274c8.929-4.296,19.456-3.58,27.72,1.888
			c2.271,1.496,4.88,1.909,7.31,0.919c2.43-0.991,4.168-3.176,4.586-5.767c0.449,3.531-1.033,7.032-3.879,9.171
			C1134.513,544.035,1130.736,544.477,1127.472,543.058"/>
		<path fill-rule="evenodd" clip-rule="evenodd" fill="#68A3C1" d="M1074.22,563.239c1.23-4.517,6.02-8.665,14.36-12.446
			c1.293-1.156,1.658-3.408,0.883-5.446c-0.774-2.036-2.487-3.325-4.14-3.114c-7.547,1.578-13.312,8.239-15.174,17.535
			c-0.516,2.55-1.816,4.396-3.772,4.973c-1.959,0.579-4.159-0.231-5.809-2.142c1.653,3.189,4.418,5.242,7.241,5.374
			C1070.634,568.104,1073.08,566.298,1074.22,563.239"/>
		<path fill-rule="evenodd" clip-rule="evenodd" fill="#BCD1E0" d="M1081.835,517.38c2.134,0.314,3.547,2.717,3.155,5.366
			c-0.39,2.65-2.436,4.543-4.569,4.229c-2.134-0.315-3.546-2.718-3.154-5.367C1077.654,518.958,1079.701,517.065,1081.835,517.38"/>
		<path fill-rule="evenodd" clip-rule="evenodd" fill="#DAE4EC" d="M1104.112,412.21c5.727-2.127,11.42-1.022,12.716,2.468
			c1.296,3.49-2.294,8.042-8.021,10.17c-5.725,2.127-11.419,1.022-12.715-2.467C1094.796,418.892,1098.386,414.337,1104.112,412.21"
			/>
		<path fill-rule="evenodd" clip-rule="evenodd" fill="#96BAD1" d="M1162.861,379.126c-9.439,7.697-21.801,10.826-33.767,8.546
			c22.723,7.788,47.503-4.005,55.788-26.55c-5.264,6.313-12.304,10.897-20.207,13.158c8.019-5.84,12.938-15.017,13.361-24.928
			c-5.292,10.522-15.513,17.682-27.209,19.063c5.711-3.803,9.278-10.091,9.612-16.945c-6.316,11.035-18.079,17.82-30.794,17.76
			c6.246-2.391,11.08-7.473,13.152-13.831c-7.857,9.184-19.949,13.588-31.874,11.609c9.245,4.88,19.821,6.631,30.145,4.99
			c-3.001,3.094-7.098,4.886-11.406,4.989c9.055,1.341,18.303-0.153,26.476-4.277c-2.561,4.878-7.527,8.022-13.035,8.249
			C1149.645,383.244,1156.854,382.576,1162.861,379.126"/>
		<path fill-rule="evenodd" clip-rule="evenodd" fill="#96BAD1" d="M1194.278,405.947c-8.207,6.693-18.955,9.414-29.36,7.433
			c19.758,6.772,41.307-3.484,48.511-23.089c-4.577,5.49-10.698,9.477-17.57,11.443c6.972-5.079,11.249-13.059,11.618-21.678
			c-4.603,9.15-13.49,15.377-23.661,16.577c4.967-3.307,8.067-8.775,8.358-14.734c-5.492,9.595-15.72,15.494-26.777,15.443
			c5.432-2.079,9.635-6.499,11.438-12.027c-6.833,7.986-17.348,11.816-27.716,10.094c8.037,4.244,17.235,5.767,26.211,4.34
			c-2.609,2.691-6.171,4.249-9.918,4.339c7.875,1.165,15.917-0.134,23.022-3.72c-2.228,4.242-6.547,6.976-11.334,7.173
			C1182.786,409.527,1189.055,408.947,1194.278,405.947"/>
		<path fill-rule="evenodd" clip-rule="evenodd" fill="#96BAD1" d="M1073.468,399.502c-8.18,0.625-16.216-2.401-21.954-8.264
			c9.564,13.047,27.802,16.06,41.056,6.784c-5.338,1.465-10.995,1.291-16.233-0.499c6.68-0.145,12.93-3.326,16.977-8.642
			c-6.973,3.781-15.379,3.808-22.376,0.072c4.62,0.094,9.011-2.011,11.834-5.671c-7.738,3.671-16.851,2.896-23.857-2.028
			c4.372,1.081,9,0.132,12.593-2.586c-7.879,2.054-16.256-0.163-22.086-5.844c3.232,6.254,8.404,11.29,14.742,14.354
			c-2.849,0.557-5.802-0.029-8.224-1.629c4.49,4.224,10.177,6.956,16.282,7.821c-3.293,1.712-7.248,1.538-10.379-0.454
			C1064.577,396.694,1068.82,399.098,1073.468,399.502"/>
		<path fill-rule="evenodd" clip-rule="evenodd" fill="#DAE4EC" d="M1104.731,576.24c3.427-1.273,6.834-0.612,7.608,1.477
			c0.777,2.09-1.373,4.815-4.799,6.088c-3.427,1.272-6.834,0.611-7.609-1.478C1099.155,580.239,1101.305,577.513,1104.731,576.24"/>
		<path fill-rule="evenodd" clip-rule="evenodd" fill="#D7E2EB" d="M1265.907,587.662c4.836,0.55,8.999,3.666,10.892,8.151
			c-21.835,32.849-46.75,59.993-74.743,81.435c7.152-6.639,9.21-17.13,5.099-25.979
			C1220.291,642.215,1239.875,621.012,1265.907,587.662"/>
		<path fill-rule="evenodd" clip-rule="evenodd" fill="#FFFFFF" d="M1213.749,690.254c8.019-1.128,15.434,4.46,16.561,12.479
			c1.126,8.019-4.46,15.434-12.479,16.561c-8.021,1.127-15.437-4.46-16.562-12.479
			C1200.143,698.796,1205.729,691.381,1213.749,690.254"/>
		<path fill-rule="evenodd" clip-rule="evenodd" fill="#79ABC6" d="M1208.582,699.754c2.308-0.324,4.438,1.283,4.765,3.59
			c0.324,2.308-1.284,4.439-3.59,4.765c-2.308,0.323-4.44-1.284-4.765-3.59C1204.669,702.211,1206.275,700.079,1208.582,699.754"/>
		<path fill-rule="evenodd" clip-rule="evenodd" fill="#79ABC6" d="M1220.175,698.125c2.307-0.324,4.438,1.283,4.764,3.59
			c0.324,2.307-1.284,4.439-3.59,4.765c-2.308,0.323-4.44-1.284-4.765-3.591C1216.261,700.583,1217.867,698.45,1220.175,698.125"/>
		<path fill-rule="evenodd" clip-rule="evenodd" fill="#79ABC6" d="M1216.35,708.184c1.707-0.239,3.314,1.163,3.593,3.135
			c0.276,1.971-0.883,3.763-2.59,4.002c-1.707,0.24-3.316-1.163-3.593-3.134C1213.483,710.217,1214.642,708.425,1216.35,708.184"/>
		<path fill-rule="evenodd" clip-rule="evenodd" fill="#FFFFFF" d="M1209.675,714.844c1.707-0.239,3.405,1.805,3.794,4.566
			s-0.682,5.195-2.389,5.436s-3.405-1.805-3.794-4.565C1206.898,717.517,1207.968,715.084,1209.675,714.844"/>
		<path fill-rule="evenodd" clip-rule="evenodd" fill="#FFFFFF" d="M1215.423,715.33c1.708-0.239,3.405,1.805,3.795,4.566
			c0.388,2.762-0.684,5.194-2.391,5.436c-1.706,0.239-3.404-1.806-3.793-4.566C1212.646,718.003,1213.716,715.57,1215.423,715.33"/>
		<path fill-rule="evenodd" clip-rule="evenodd" fill="#FFFFFF" d="M1220.431,714.488c1.707-0.24,3.404,1.805,3.794,4.565
			c0.388,2.763-0.682,5.195-2.39,5.436c-1.706,0.239-3.405-1.805-3.794-4.565C1217.654,717.161,1218.723,714.728,1220.431,714.488"
			/>
		<path fill-rule="evenodd" clip-rule="evenodd" fill="#FFFFFF" d="M1225.105,712.529c1.707-0.239,3.404,1.805,3.794,4.566
			c0.388,2.762-0.682,5.195-2.39,5.435c-1.707,0.241-3.405-1.804-3.794-4.565C1222.328,715.203,1223.397,712.769,1225.105,712.529"
			/>
		
			<rect x="1198.522" y="734.86" transform="matrix(-0.9581 -0.2864 0.2864 -0.9581 2180.6592 1795.3679)" fill-rule="evenodd" clip-rule="evenodd" fill="#FFFFFF" width="46.172" height="6.746"/>
		<path fill-rule="evenodd" clip-rule="evenodd" fill="#FFFFFF" d="M1200.826,722.359c2.841,0.849,4.456,3.84,3.605,6.682
			c-0.848,2.841-3.839,4.456-6.68,3.606c-2.841-0.849-4.457-3.84-3.608-6.682C1194.993,723.125,1197.984,721.509,1200.826,722.359"
			/>
		<path fill-rule="evenodd" clip-rule="evenodd" fill="#FFFFFF" d="M1198.736,729.351c2.842,0.85,4.456,3.841,3.606,6.682
			c-0.848,2.842-3.839,4.456-6.682,3.607c-2.841-0.85-4.456-3.841-3.607-6.682C1192.903,730.117,1195.895,728.502,1198.736,729.351"
			/>
		<path fill-rule="evenodd" clip-rule="evenodd" fill="#FFFFFF" d="M1246.379,735.972c2.841,0.85,4.456,3.841,3.605,6.682
			c-0.848,2.841-3.839,4.456-6.681,3.606c-2.841-0.849-4.456-3.84-3.607-6.682C1240.546,736.738,1243.537,735.122,1246.379,735.972"
			/>
		<path fill-rule="evenodd" clip-rule="evenodd" fill="#FFFFFF" d="M1244.289,742.963c2.841,0.851,4.456,3.841,3.606,6.682
			c-0.849,2.842-3.84,4.457-6.681,3.608c-2.841-0.85-4.457-3.841-3.607-6.682C1238.457,743.73,1241.447,742.116,1244.289,742.963"/>
		
			<rect x="1197.487" y="735.005" transform="matrix(0.8421 -0.5393 0.5393 0.8421 -205.4948 774.8855)" fill-rule="evenodd" clip-rule="evenodd" fill="#FFFFFF" width="46.173" height="6.748"/>
		<path fill-rule="evenodd" clip-rule="evenodd" fill="#FFFFFF" d="M1236.174,717.39c-2.497,1.6-3.226,4.921-1.626,7.418
			c1.601,2.497,4.921,3.225,7.418,1.625c2.497-1.599,3.226-4.92,1.625-7.417C1241.991,716.519,1238.672,715.792,1236.174,717.39"/>
		<path fill-rule="evenodd" clip-rule="evenodd" fill="#FFFFFF" d="M1240.109,723.537c-2.496,1.599-3.225,4.92-1.625,7.416
			c1.601,2.498,4.92,3.226,7.417,1.626s3.225-4.92,1.626-7.417C1245.927,722.665,1242.607,721.937,1240.109,723.537"/>
		<path fill-rule="evenodd" clip-rule="evenodd" fill="#FFFFFF" d="M1196.139,743.033c-2.497,1.6-3.226,4.92-1.625,7.418
			c1.599,2.497,4.92,3.224,7.416,1.625c2.498-1.6,3.226-4.921,1.626-7.417C1201.955,742.162,1198.636,741.433,1196.139,743.033"/>
		<path fill-rule="evenodd" clip-rule="evenodd" fill="#FFFFFF" d="M1200.075,749.178c-2.498,1.6-3.227,4.92-1.625,7.417
			c1.599,2.497,4.919,3.225,7.416,1.626c2.497-1.601,3.225-4.92,1.625-7.417S1202.571,747.58,1200.075,749.178"/>
		<path fill-rule="evenodd" clip-rule="evenodd" fill="#68A3C1" d="M1094.353,744.066
			c109.946,90.77,177.284,130.491,202.009,119.164c-2.686,28.646-2.546,57.245,0.418,85.798
			c-28.398,24.026-89.643-19.102-194.657-117.093C1096.942,773.355,1094.353,744.066,1094.353,744.066"/>
		<path fill-rule="evenodd" clip-rule="evenodd" fill="#C7D8E4" d="M1114.621,703.42c-7.801,22.53-17.285,34.018-28.455,34.462
			c-5.562-3.324-12.14-8.275-19.733-14.853c-4.244-3.446-9.424-2.291-13.709,6.301c-12.676,25.311-27.056,5.447-40.011-14.048
			c-9.655-15.145-3.552-32.979,25.362-58.057C1043.019,628.102,1080.415,635.912,1114.621,703.42"/>
		<path fill-rule="evenodd" clip-rule="evenodd" fill="#B3CCDC" d="M1088.463,737.63c15.988-18.883,23.982-28.324,23.982-28.324
			c-6.005-12.451-15.182-26.646-27.531-42.584c8.053,19.814,4.82,42.43-8.457,59.196
			C1084.461,733.726,1088.463,737.63,1088.463,737.63"/>
		<path fill-rule="evenodd" clip-rule="evenodd" fill="#FFFFFF" d="M1092.45,756.636c18.623-10.292,33.674-26.008,43.149-45.06
			c-5.973-6.746-12.772-12.712-20.237-17.757c-7.994,18.341-21.554,33.705-38.76,43.914
			C1080.145,745.31,1085.607,751.827,1092.45,756.636"/>
		<path fill-rule="evenodd" clip-rule="evenodd" fill="#D7E2EB" d="M1083.477,755.157c24.562-9.539,37.503-29.258,49.576-52.679
			c0,0,31.864,28.029,98.131,81.481c8.91,7.382,14.83,4.665,15.229-5.541l4.375-116.148c0.556-28.235,22.937-51.189,51.149-52.457
			c28.212-1.269,54.832,19.934,55.646,47.658c0.996,34.272-2.408,96.448-20.682,185.616c-4.616,23.23-13.054,32.509-40.481,48.549
			c-21.294,12.453-44.403,6.405-96.855-30.61C1154.062,825.859,1120.221,791.585,1083.477,755.157"/>
		<path fill-rule="evenodd" clip-rule="evenodd" fill="#C5D7E4" d="M1308.946,615.261c12.562,7.254,12.432,37.039-4.866,45.329
			c-1.717,16.703,4.771,73.654-11.575,174.95c-1.679,7.565-6.784,14.317-15.131,20.938c-7.849,5.494-15.526,5.93-23.03,1.31
			c-46.899-27.327-81.899-52.894-104.999-76.697c-9.297,2.154-22.116-0.477-38.459-7.892
			c51.605,48.169,93.372,83.525,132.32,103.756c18.839,10.004,32.828,14.661,49.94,4.668c23.64-13.57,31.601-26.579,34.426-41.35
			c14.65-72.932,21.776-133.758,21.38-182.478C1348.286,635.542,1331.116,617.289,1308.946,615.261"/>
		<path fill-rule="evenodd" clip-rule="evenodd" fill="#E9EEF3" d="M1293.024,626.753c5.03,0,9.107,4.079,9.107,9.108
			c0,5.03-4.077,9.107-9.107,9.107s-9.107-4.077-9.107-9.107C1283.917,630.833,1287.994,626.753,1293.024,626.753"/>
		<path fill-rule="evenodd" clip-rule="evenodd" fill="#DEE7EE" d="M1002.902,570.91c71.615,9.529,68.264,33.701-7.327,50.122
			c60.436-27.011,64.748-31.153,2.306-41.516c-18.445-3.542-21.502-9.686-5.894-21.27c15.018-10.964,13.223-17.58-8.481-23.125
			c-17.412-4.705-9.104-14.398,28.151-23.614c12.37-3.409,11.26-8.818-3.328-16.231c21.113,7.654,22.895,19.556,5.345,24.534
			c-15.135,4.083-19.141,5.8-12.154,9.247c18.798,9.752,18.892,22.409,0.284,37.969
			C999.166,569.204,998.907,570.374,1002.902,570.91"/>
		<path fill-rule="evenodd" clip-rule="evenodd" fill="#89B3CC" d="M150.012,961.683h1383.976c23.951,0,43.547,19.597,43.547,43.548
			v0.002c0,23.95-19.596,43.547-43.547,43.547H150.012c-23.951,0-43.548-19.597-43.548-43.547v-0.002
			C106.464,981.28,126.061,961.683,150.012,961.683"/>
		<path fill-rule="evenodd" clip-rule="evenodd" fill="#76A9C5" d="M479.106,961.683h725.789c23.951,0,43.547,19.597,43.547,43.548
			v0.002c0,23.95-19.596,43.547-43.547,43.547H479.106c-23.952,0-43.548-19.597-43.548-43.547v-0.002
			C435.558,981.28,455.154,961.683,479.106,961.683"/>
		<path fill-rule="evenodd" clip-rule="evenodd" fill="#A5C3D7" d="M32.608,950.614h1618.785c13.119,0,23.852,10.732,23.852,23.854
			v0.001c0,13.117-10.732,23.852-23.852,23.852H32.608c-13.119,0-23.853-10.734-23.853-23.852v-0.001
			C8.755,961.346,19.489,950.614,32.608,950.614"/>
		<path fill-rule="evenodd" clip-rule="evenodd" fill="#98BBD2" d="M194.561,950.614h735.042c13.119,0,23.853,10.732,23.853,23.854
			v0.001c0,13.117-10.733,23.852-23.853,23.852H194.561c-13.119,0-23.853-10.734-23.853-23.852v-0.001
			C170.708,961.346,181.442,950.614,194.561,950.614"/>
		<path fill-rule="evenodd" clip-rule="evenodd" fill="#B3CCDC" d="M1098.088,950.614h300.709c13.119,0,23.853,10.732,23.853,23.854
			v0.001c0,13.117-10.733,23.852-23.853,23.852h-300.709c-13.118,0-23.854-10.734-23.854-23.852v-0.001
			C1074.234,961.346,1084.97,950.614,1098.088,950.614"/>
		<path fill-rule="evenodd" clip-rule="evenodd" fill="#FFFFFF" d="M528.5,125.551c6.243,0,11.306,5.062,11.306,11.306
			c0,6.245-5.063,11.307-11.306,11.307c-6.245,0-11.308-5.062-11.308-11.307C517.192,130.613,522.255,125.551,528.5,125.551"/>
		<path fill-rule="evenodd" clip-rule="evenodd" fill="#FFFFFF" d="M578.322,166.163c3.637,0,6.585,2.949,6.585,6.586
			c0,3.638-2.948,6.586-6.585,6.586c-3.638,0-6.586-2.948-6.586-6.586C571.735,169.112,574.684,166.163,578.322,166.163"/>
		<path fill-rule="evenodd" clip-rule="evenodd" fill="#FFFFFF" d="M692.715,119.946c4.998,0,9.052,4.053,9.052,9.052
			c0,5-4.054,9.052-9.052,9.052c-5,0-9.053-4.052-9.053-9.052C683.662,123.999,687.715,119.946,692.715,119.946"/>
		<path fill-rule="evenodd" clip-rule="evenodd" fill="#FFFFFF" d="M938.499,85.795c5,0,9.053,4.053,9.053,9.052
			c0,5-4.053,9.053-9.053,9.053c-4.999,0-9.052-4.053-9.052-9.053C929.447,89.849,933.5,85.795,938.499,85.795"/>
		<path fill-rule="evenodd" clip-rule="evenodd" fill="#FFFFFF" d="M457.207,200.43c3.637,0,6.586,2.949,6.586,6.586
			c0,3.637-2.949,6.586-6.586,6.586c-3.638,0-6.586-2.949-6.586-6.586C450.621,203.379,453.569,200.43,457.207,200.43"/>
		<path fill-rule="evenodd" clip-rule="evenodd" fill="#FFFFFF" d="M1017.565,185.377c3.638,0,6.586,2.949,6.586,6.585
			c0,3.638-2.948,6.586-6.586,6.586c-3.639,0-6.587-2.948-6.587-6.586C1010.979,188.327,1013.927,185.377,1017.565,185.377"/>
		<path fill-rule="evenodd" clip-rule="evenodd" fill="#FFFFFF" d="M1191.868,187.211c4.999,0,9.052,4.053,9.052,9.052
			c0,5-4.053,9.052-9.052,9.052c-5,0-9.054-4.052-9.054-9.052C1182.814,191.265,1186.868,187.211,1191.868,187.211"/>
		<path fill-rule="evenodd" clip-rule="evenodd" fill="#FFFFFF" d="M1053.537,77.868c2.053,0,3.717,1.664,3.717,3.717
			c0,2.053-1.664,3.718-3.717,3.718c-2.054,0-3.719-1.665-3.719-3.718C1049.818,79.532,1051.483,77.868,1053.537,77.868"/>
		<polygon fill-rule="evenodd" clip-rule="evenodd" fill="#B0C9DB" points="606.535,171.803 624.956,190.8 635.426,167.189 
			623.848,181.573 		"/>
		<polygon fill-rule="evenodd" clip-rule="evenodd" fill="#B0C9DB" points="693.979,217.94 712.399,236.937 722.869,213.326 
			711.29,227.71 		"/>
		<polygon fill-rule="evenodd" clip-rule="evenodd" fill="#B0C9DB" points="941.254,203.605 959.675,222.602 970.145,198.991 
			958.566,213.375 		"/>
		<path fill-rule="evenodd" clip-rule="evenodd" fill="#FFFFFF" d="M1055.519,906.923c7.393,0,13.386,5.992,13.386,13.385
			s-5.993,13.387-13.386,13.387c-7.394,0-13.387-5.994-13.387-13.387S1048.125,906.923,1055.519,906.923"/>
		<path fill-rule="evenodd" clip-rule="evenodd" fill="#FFFFFF" d="M1012.235,912.408c4.27,0,7.73,3.462,7.73,7.731
			c0,4.271-3.461,7.731-7.73,7.731c-4.271,0-7.731-3.461-7.731-7.731C1004.504,915.87,1007.964,912.408,1012.235,912.408"/>
		<path fill-rule="evenodd" clip-rule="evenodd" fill="#FFFFFF" d="M1124.624,911.064c3.001,0,5.434,2.433,5.434,5.434
			c0,3-2.433,5.434-5.434,5.434s-5.435-2.434-5.435-5.434C1119.189,913.497,1121.623,911.064,1124.624,911.064"/>
		<path fill-rule="evenodd" clip-rule="evenodd" fill="#FFFFFF" d="M971.03,844.258c3.001,0,5.433,2.434,5.433,5.435
			c0,3-2.432,5.433-5.433,5.433c-3.002,0-5.435-2.433-5.435-5.433C965.596,846.692,968.028,844.258,971.03,844.258"/>
		<path fill-rule="evenodd" clip-rule="evenodd" fill="#FFFFFF" d="M897.029,888.217c3.231,0,5.853,2.62,5.853,5.854
			c0,3.231-2.621,5.852-5.853,5.852c-3.232,0-5.854-2.62-5.854-5.852C891.176,890.837,893.797,888.217,897.029,888.217"/>
		<path fill-rule="evenodd" clip-rule="evenodd" fill="#FFFFFF" d="M903.416,833.537c3.231,0,5.854,2.62,5.854,5.854
			c0,3.231-2.622,5.852-5.854,5.852c-3.232,0-5.854-2.62-5.854-5.852C897.562,836.157,900.184,833.537,903.416,833.537"/>
		<path fill-rule="evenodd" clip-rule="evenodd" fill="#FFFFFF" d="M1212.105,911.875c6.193,0,11.215,5.021,11.215,11.215
			s-5.021,11.215-11.215,11.215s-11.217-5.021-11.217-11.215S1205.912,911.875,1212.105,911.875"/>
		<path fill-rule="evenodd" clip-rule="evenodd" fill="#FFFFFF" d="M1336.735,915.647c5.048,0,9.14,4.092,9.14,9.14
			c0,5.049-4.092,9.139-9.14,9.139s-9.14-4.09-9.14-9.139C1327.596,919.739,1331.688,915.647,1336.735,915.647"/>
		<path fill-rule="evenodd" clip-rule="evenodd" fill="#FFFFFF" d="M1322.564,886.875c3.281,0,5.942,2.661,5.942,5.943
			s-2.661,5.943-5.942,5.943c-3.282,0-5.943-2.661-5.943-5.943S1319.282,886.875,1322.564,886.875"/>
		<path fill-rule="evenodd" clip-rule="evenodd" fill="#FFFFFF" d="M1362.757,843.165c3.282,0,5.942,2.66,5.942,5.942
			c0,3.283-2.66,5.943-5.942,5.943s-5.944-2.66-5.944-5.943C1356.812,845.825,1359.475,843.165,1362.757,843.165"/>
		<path fill-rule="evenodd" clip-rule="evenodd" fill="#FFFFFF" d="M1079.183,821.7c3,0,5.434,2.432,5.434,5.434
			c0,3.001-2.434,5.433-5.434,5.433c-3.001,0-5.436-2.432-5.436-5.433C1073.747,824.131,1076.182,821.7,1079.183,821.7"/>
		<path fill-rule="evenodd" clip-rule="evenodd" fill="#FFFFFF" d="M823.434,917.783c5.689,0,10.304,4.612,10.304,10.304
			c0,5.689-4.614,10.303-10.304,10.303c-5.691,0-10.304-4.613-10.304-10.303C813.129,922.395,817.742,917.783,823.434,917.783"/>
		<path fill-rule="evenodd" clip-rule="evenodd" fill="#FFFFFF" d="M733.706,877.198c2.844,0,5.151,2.307,5.151,5.151
			s-2.307,5.151-5.151,5.151c-2.846,0-5.152-2.307-5.152-5.151S730.86,877.198,733.706,877.198"/>
		<path fill-rule="evenodd" clip-rule="evenodd" fill="#FFFFFF" d="M837.576,775.92c2.712,0,4.912,2.198,4.912,4.912
			c0,2.713-2.2,4.912-4.912,4.912c-2.712,0-4.912-2.199-4.912-4.912C832.664,778.119,834.864,775.92,837.576,775.92"/>
		<path fill-rule="evenodd" clip-rule="evenodd" fill="#FFFFFF" d="M926.684,767.433c2.193,0,3.974,1.779,3.974,3.975
			c0,2.194-1.78,3.975-3.974,3.975c-2.195,0-3.976-1.78-3.976-3.975C922.708,769.212,924.488,767.433,926.684,767.433"/>
		<path fill-rule="evenodd" clip-rule="evenodd" fill="#FFFFFF" d="M902.634,736.715c2.194,0,3.975,1.779,3.975,3.975
			c0,2.194-1.78,3.974-3.975,3.974s-3.975-1.779-3.975-3.974C898.659,738.495,900.439,736.715,902.634,736.715"/>
		<path fill-rule="evenodd" clip-rule="evenodd" fill="#FFFFFF" d="M1398.953,892.397c3.281,0,5.942,2.66,5.942,5.942
			c0,3.283-2.661,5.943-5.942,5.943c-3.282,0-5.943-2.66-5.943-5.943C1393.01,895.057,1395.671,892.397,1398.953,892.397"/>
		<path fill-rule="evenodd" clip-rule="evenodd" fill="#FFFFFF" d="M1449.588,905.506c5.006,0,9.063,4.06,9.063,9.064
			c0,5.006-4.058,9.063-9.063,9.063s-9.063-4.058-9.063-9.063C1440.524,909.566,1444.582,905.506,1449.588,905.506"/>
		<path fill-rule="evenodd" clip-rule="evenodd" fill="#FFFFFF" d="M1445.877,861.427c2.504,0,4.531,2.029,4.531,4.531
			c0,2.503-2.027,4.533-4.531,4.533c-2.503,0-4.531-2.03-4.531-4.533C1441.346,863.457,1443.374,861.427,1445.877,861.427"/>
		<path fill-rule="evenodd" clip-rule="evenodd" fill="#FFFFFF" d="M1417.682,840.283c1.252,0,2.266,1.016,2.266,2.267
			s-1.014,2.266-2.266,2.266c-1.251,0-2.267-1.015-2.267-2.266S1416.431,840.283,1417.682,840.283"/>
		<path fill-rule="evenodd" clip-rule="evenodd" fill="#FFFFFF" d="M1505.604,909.239c3.282,0,5.942,2.661,5.942,5.943
			s-2.66,5.943-5.942,5.943s-5.943-2.661-5.943-5.943S1502.322,909.239,1505.604,909.239"/>
		<path fill-rule="evenodd" clip-rule="evenodd" fill="#FFFFFF" d="M647.672,917.667c3.282,0,5.943,2.661,5.943,5.942
			c0,3.282-2.661,5.944-5.943,5.944c-3.283,0-5.943-2.662-5.943-5.944C641.729,920.328,644.389,917.667,647.672,917.667"/>
		<path fill-rule="evenodd" clip-rule="evenodd" fill="#DEE7EE" d="M1425.655,183.772c17.176-13.229,50.039,0.638,73.397,30.97
			c23.362,30.333,28.375,65.647,11.199,78.876c-17.177,13.228-50.038-0.638-73.4-30.971
			C1413.492,232.314,1408.479,197.001,1425.655,183.772"/>
		<path fill-rule="evenodd" clip-rule="evenodd" fill="#DEE7EE" d="M1528.664,203.098c10.528-5.909,27.524,4.377,37.959,22.973
			c10.434,18.596,10.354,38.46-0.176,44.369c-10.529,5.908-27.524-4.377-37.959-22.973
			C1518.056,228.87,1518.134,209.005,1528.664,203.098"/>
		<g opacity="0.4">
			<g>
				<defs>
					<rect id="SVGID_1_" x="505.765" y="306.685" width="315.425" height="315.424"/>
				</defs>
				<clipPath id="SVGID_2_">
					<use xlink:href="#SVGID_1_"  overflow="visible"/>
				</clipPath>
				<path clip-path="url(#SVGID_2_)" fill-rule="evenodd" clip-rule="evenodd" fill="#FFFFFF" d="M663.48,306.682
					c87.102,0,157.713,70.611,157.713,157.714S750.582,622.11,663.48,622.11c-87.103,0-157.714-70.611-157.714-157.714
					S576.377,306.682,663.48,306.682"/>
			</g>
		</g>
		<g opacity="0.4">
			<g>
				<defs>
					<rect id="SVGID_3_" x="721.91" y="319.006" width="120.54" height="120.549"/>
				</defs>
				<clipPath id="SVGID_4_">
					<use xlink:href="#SVGID_3_"  overflow="visible"/>
				</clipPath>
				<path clip-path="url(#SVGID_4_)" fill-rule="evenodd" clip-rule="evenodd" fill="#FFFFFF" d="M782.182,319.006
					c33.288,0,60.272,26.986,60.272,60.274c0,33.289-26.985,60.275-60.272,60.275c-33.289,0-60.275-26.986-60.275-60.275
					C721.906,345.992,748.893,319.006,782.182,319.006"/>
			</g>
		</g>
		<path fill-rule="evenodd" clip-rule="evenodd" fill="#98BBD2" d="M965.144,722.337c9.577,2.054,9.907,5.33,0.986,9.828
			c-21.456,1.011-39.952-14.945-42.099-36.317c-2.148-21.373,12.805-40.688,34.034-43.968c1.919,0.751,3.256,2.513,3.462,4.562
			s-0.754,4.043-2.487,5.159c-15.477,3.092-26.081,17.431-24.501,33.137C936.116,710.444,949.359,722.385,965.144,722.337"/>
	</g>
</g>
</svg>
